<svg xmlns="http://www.w3.org/2000/svg" xmlns:xlink="http://www.w3.org/1999/xlink" viewBox="0 0 500 500"><defs><clipPath id="freepik--clip-path--inject-44"><rect x="63.93" y="379.92" width="380.15" height="46.55" style="fill:#134074"></rect></clipPath></defs><g id="freepik--background-simple--inject-44"><path d="M389,105.39S331.4,56.3,256.08,63.07,159.6,106.23,135.9,146c-18.65,31.31-28.2,68.15-40,102.37-10.76,31.33-32.71,62.24-29.47,96.79,4.11,43.7,47.1,72.17,87.15,79.22,55.89,9.83,90-29.45,132.21-58.67l.24-.17a146.35,146.35,0,0,1,19.09-11.35c52.48-25.39,106.64-3.39,127.8-63.47S427,146.85,389,105.39Z" style="fill:#134074"></path><path d="M389,105.39S331.4,56.3,256.08,63.07,159.6,106.23,135.9,146c-18.65,31.31-28.2,68.15-40,102.37-10.76,31.33-32.71,62.24-29.47,96.79,4.11,43.7,47.1,72.17,87.15,79.22,55.89,9.83,90-29.45,132.21-58.67l.24-.17a146.35,146.35,0,0,1,19.09-11.35c52.48-25.39,106.64-3.39,127.8-63.47S427,146.85,389,105.39Z" style="fill:#fff;opacity:0.75"></path></g><g id="freepik--Clouds--inject-44"><path d="M334.59,166.51c-4.21-2.29-6.13-.38-7.66-2.29s4.21-6.9-7.28-11.87c0,0-.76-10.73-16.46-11.11s-11.49,10.72-15.7,13.4-5.36-1.53-9.57,1.15-2.3,8-5.75,8.81-8-3.45-12.25-.77-4.21,5-6.13,5-5.74-1.53-8,0-5,3.45-5,3.45h96.88S338.8,168.81,334.59,166.51Z" style="fill:#134074"></path><path d="M298.36,97.3c-2.84-1.56-4.14-.26-5.17-1.56s2.84-4.65-4.91-8c0,0-.52-7.23-11.11-7.49s-7.76,7.24-10.6,9-3.62-1-6.46.78-1.55,5.43-3.88,5.94-5.42-2.32-8.27-.51-2.84,3.36-4.13,3.36-3.88-1-5.43,0-3.36,2.32-3.36,2.32h65.39S301.2,98.85,298.36,97.3Z" style="fill:#134074"></path><path d="M370.14,106.3c-4.22-2.3-6.13-.38-7.66-2.3s4.21-6.89-7.28-11.87c0,0-.76-10.72-16.46-11.1S327.25,91.75,323,94.43s-5.36-1.53-9.57,1.15-2.3,8-5.75,8.8-8-3.44-12.25-.76-4.21,5-6.13,5-5.74-1.54-8,0-5,3.44-5,3.44H373.2S374.35,108.6,370.14,106.3Z" style="fill:#134074"></path><path d="M243.18,131.69c-4.21-2.3-6.13-.38-7.66-2.3s4.21-6.89-7.28-11.87c0,0-.76-10.72-16.46-11.1s-11.49,10.72-15.7,13.4-5.36-1.53-9.57,1.15-2.3,8-5.75,8.81-8-3.45-12.25-.77-4.21,5-6.13,5-5.74-1.53-8,0-5,3.44-5,3.44h96.88S247.39,134,243.18,131.69Z" style="fill:#134074"></path><g style="opacity:0.4"><path d="M334.59,166.51c-4.21-2.29-6.13-.38-7.66-2.29s4.21-6.9-7.28-11.87c0,0-.76-10.73-16.46-11.11s-11.49,10.72-15.7,13.4-5.36-1.53-9.57,1.15-2.3,8-5.75,8.81-8-3.45-12.25-.77-4.21,5-6.13,5-5.74-1.53-8,0-5,3.45-5,3.45h96.88S338.8,168.81,334.59,166.51Z" style="fill:#fff"></path><path d="M298.36,97.3c-2.84-1.56-4.14-.26-5.17-1.56s2.84-4.65-4.91-8c0,0-.52-7.23-11.11-7.49s-7.76,7.24-10.6,9-3.62-1-6.46.78-1.55,5.43-3.88,5.94-5.42-2.32-8.27-.51-2.84,3.36-4.13,3.36-3.88-1-5.43,0-3.36,2.32-3.36,2.32h65.39S301.2,98.85,298.36,97.3Z" style="fill:#fff"></path><path d="M370.14,106.3c-4.22-2.3-6.13-.38-7.66-2.3s4.21-6.89-7.28-11.87c0,0-.76-10.72-16.46-11.1S327.25,91.75,323,94.43s-5.36-1.53-9.57,1.15-2.3,8-5.75,8.8-8-3.44-12.25-.76-4.21,5-6.13,5-5.74-1.54-8,0-5,3.44-5,3.44H373.2S374.35,108.6,370.14,106.3Z" style="fill:#fff"></path><path d="M243.18,131.69c-4.21-2.3-6.13-.38-7.66-2.3s4.21-6.89-7.28-11.87c0,0-.76-10.72-16.46-11.1s-11.49,10.72-15.7,13.4-5.36-1.53-9.57,1.15-2.3,8-5.75,8.81-8-3.45-12.25-.77-4.21,5-6.13,5-5.74-1.53-8,0-5,3.44-5,3.44h96.88S247.39,134,243.18,131.69Z" style="fill:#fff"></path></g></g><g id="freepik--Buildings--inject-44"><rect x="247.51" y="262.34" width="49.48" height="118.29" style="fill:#fff;stroke:#263238;stroke-linecap:round;stroke-linejoin:round"></rect><rect x="247.51" y="262.34" width="49.48" height="5.85" style="fill:#fff;stroke:#263238;stroke-linecap:round;stroke-linejoin:round"></rect><path d="M247.51,275.11H260a7.3,7.3,0,0,1,7.3,7.3v6.27a0,0,0,0,1,0,0H247.51a0,0,0,0,1,0,0V275.11A0,0,0,0,1,247.51,275.11Z" style="fill:#263238;stroke:#263238;stroke-linecap:round;stroke-linejoin:round"></path><path d="M276.88,275.11H296a0,0,0,0,1,0,0v13.57a0,0,0,0,1,0,0H269.58a0,0,0,0,1,0,0v-6.27A7.3,7.3,0,0,1,276.88,275.11Z" style="fill:#263238;stroke:#263238;stroke-linecap:round;stroke-linejoin:round"></path><rect x="247.51" y="288.34" width="49.48" height="5.85" style="fill:#fff;stroke:#263238;stroke-linecap:round;stroke-linejoin:round"></rect><path d="M247.51,297.18H260a7.3,7.3,0,0,1,7.3,7.3v6.27a0,0,0,0,1,0,0H247.51a0,0,0,0,1,0,0V297.18A0,0,0,0,1,247.51,297.18Z" style="fill:#263238;stroke:#263238;stroke-linecap:round;stroke-linejoin:round"></path><path d="M276.88,297.18H296a0,0,0,0,1,0,0v13.57a0,0,0,0,1,0,0H269.58a0,0,0,0,1,0,0v-6.27A7.3,7.3,0,0,1,276.88,297.18Z" style="fill:#263238;stroke:#263238;stroke-linecap:round;stroke-linejoin:round"></path><rect x="247.51" y="310.4" width="49.48" height="5.85" style="fill:#fff;stroke:#263238;stroke-linecap:round;stroke-linejoin:round"></rect><path d="M247.51,319.25H260a7.3,7.3,0,0,1,7.3,7.3v6.27a0,0,0,0,1,0,0H247.51a0,0,0,0,1,0,0V319.25A0,0,0,0,1,247.51,319.25Z" style="fill:#263238;stroke:#263238;stroke-linecap:round;stroke-linejoin:round"></path><path d="M276.88,319.25H296a0,0,0,0,1,0,0v13.57a0,0,0,0,1,0,0H269.58a0,0,0,0,1,0,0v-6.27A7.3,7.3,0,0,1,276.88,319.25Z" style="fill:#263238;stroke:#263238;stroke-linecap:round;stroke-linejoin:round"></path><rect x="247.51" y="332.47" width="49.48" height="5.85" style="fill:#fff;stroke:#263238;stroke-linecap:round;stroke-linejoin:round"></rect><path d="M247.51,341.32H260a7.3,7.3,0,0,1,7.3,7.3v6.27a0,0,0,0,1,0,0H247.51a0,0,0,0,1,0,0V341.32A0,0,0,0,1,247.51,341.32Z" style="fill:#263238;stroke:#263238;stroke-linecap:round;stroke-linejoin:round"></path><path d="M276.88,341.32H296a0,0,0,0,1,0,0v13.57a0,0,0,0,1,0,0H269.58a0,0,0,0,1,0,0v-6.27A7.3,7.3,0,0,1,276.88,341.32Z" style="fill:#263238;stroke:#263238;stroke-linecap:round;stroke-linejoin:round"></path><rect x="247.51" y="354.54" width="49.48" height="5.85" style="fill:#fff;stroke:#263238;stroke-linecap:round;stroke-linejoin:round"></rect><rect x="215.61" y="227.25" width="37.3" height="155.47" style="fill:#fff;stroke:#263238;stroke-linecap:round;stroke-linejoin:round"></rect><rect x="243.69" y="355.06" width="4.44" height="5.92" style="fill:#263238;stroke:#263238;stroke-linecap:round;stroke-linejoin:round"></rect><rect x="231.47" y="355.06" width="4.44" height="5.92" style="fill:#263238;stroke:#263238;stroke-linecap:round;stroke-linejoin:round"></rect><rect x="219.26" y="355.06" width="4.44" height="5.92" style="fill:#263238;stroke:#263238;stroke-linecap:round;stroke-linejoin:round"></rect><rect x="243.69" y="331.74" width="4.44" height="5.92" style="fill:#263238;stroke:#263238;stroke-linecap:round;stroke-linejoin:round"></rect><rect x="231.47" y="331.74" width="4.44" height="5.92" style="fill:#263238;stroke:#263238;stroke-linecap:round;stroke-linejoin:round"></rect><rect x="219.26" y="331.74" width="4.44" height="5.92" style="fill:#263238;stroke:#263238;stroke-linecap:round;stroke-linejoin:round"></rect><rect x="243.69" y="308.05" width="4.44" height="5.92" style="fill:#263238;stroke:#263238;stroke-linecap:round;stroke-linejoin:round"></rect><rect x="231.47" y="308.05" width="4.44" height="5.92" style="fill:#263238;stroke:#263238;stroke-linecap:round;stroke-linejoin:round"></rect><rect x="219.26" y="308.05" width="4.44" height="5.92" style="fill:#263238;stroke:#263238;stroke-linecap:round;stroke-linejoin:round"></rect><rect x="243.69" y="284.36" width="4.44" height="5.92" style="fill:#263238;stroke:#263238;stroke-linecap:round;stroke-linejoin:round"></rect><rect x="231.47" y="284.36" width="4.44" height="5.92" style="fill:#263238;stroke:#263238;stroke-linecap:round;stroke-linejoin:round"></rect><rect x="219.26" y="284.36" width="4.44" height="5.92" style="fill:#263238;stroke:#263238;stroke-linecap:round;stroke-linejoin:round"></rect><rect x="243.69" y="260.67" width="4.44" height="5.92" style="fill:#263238;stroke:#263238;stroke-linecap:round;stroke-linejoin:round"></rect><rect x="231.47" y="260.67" width="4.44" height="5.92" style="fill:#263238;stroke:#263238;stroke-linecap:round;stroke-linejoin:round"></rect><rect x="219.26" y="260.67" width="4.44" height="5.92" style="fill:#263238;stroke:#263238;stroke-linecap:round;stroke-linejoin:round"></rect><rect x="243.69" y="236.98" width="4.44" height="5.92" style="fill:#263238;stroke:#263238;stroke-linecap:round;stroke-linejoin:round"></rect><rect x="231.47" y="236.98" width="4.44" height="5.92" style="fill:#263238;stroke:#263238;stroke-linecap:round;stroke-linejoin:round"></rect><rect x="219.26" y="236.98" width="4.44" height="5.92" style="fill:#263238;stroke:#263238;stroke-linecap:round;stroke-linejoin:round"></rect><rect x="214.45" y="227.25" width="39.61" height="4.55" style="fill:#fff;stroke:#263238;stroke-linecap:round;stroke-linejoin:round"></rect><rect x="214.45" y="250.57" width="39.61" height="4.55" style="fill:#fff;stroke:#263238;stroke-linecap:round;stroke-linejoin:round"></rect><rect x="214.45" y="273.89" width="39.61" height="4.55" style="fill:#fff;stroke:#263238;stroke-linecap:round;stroke-linejoin:round"></rect><rect x="214.45" y="297.21" width="39.61" height="4.55" style="fill:#fff;stroke:#263238;stroke-linecap:round;stroke-linejoin:round"></rect><rect x="214.45" y="320.53" width="39.61" height="4.55" style="fill:#fff;stroke:#263238;stroke-linecap:round;stroke-linejoin:round"></rect><rect x="214.45" y="343.85" width="39.61" height="4.55" style="fill:#fff;stroke:#263238;stroke-linecap:round;stroke-linejoin:round"></rect><rect x="215.61" y="364.58" width="37.3" height="4.55" style="fill:#fff;stroke:#263238;stroke-linecap:round;stroke-linejoin:round"></rect><rect x="213.64" y="358.64" width="83.35" height="22" style="fill:#fff;stroke:#263238;stroke-linecap:round;stroke-linejoin:round"></rect><rect x="213.64" y="358.64" width="33.62" height="22" style="fill:#263238;stroke:#263238;stroke-linecap:round;stroke-linejoin:round"></rect><rect x="283.33" y="122" width="140.27" height="258.64" style="fill:#263238;stroke:#263238;stroke-linecap:round;stroke-linejoin:round"></rect><rect x="320.4" y="122" width="103.2" height="258.64" style="fill:#fff;stroke:#263238;stroke-linecap:round;stroke-linejoin:round"></rect><rect x="344.87" y="355.92" width="78.73" height="24.72" style="fill:#263238;stroke:#263238;stroke-linecap:round;stroke-linejoin:round"></rect><rect x="363.08" y="355.92" width="4.28" height="24.72" style="fill:#fff;stroke:#263238;stroke-linecap:round;stroke-linejoin:round"></rect><rect x="385.19" y="355.92" width="4.28" height="24.72" style="fill:#fff;stroke:#263238;stroke-linecap:round;stroke-linejoin:round"></rect><rect x="407.29" y="355.92" width="4.28" height="24.72" style="fill:#fff;stroke:#263238;stroke-linecap:round;stroke-linejoin:round"></rect><line x1="359.69" y1="355.92" x2="359.69" y2="122.6" style="fill:none;stroke:#263238;stroke-linecap:round;stroke-linejoin:round"></line><line x1="307.02" y1="381.52" x2="307.02" y2="122.6" style="fill:none;stroke:#fff;stroke-linecap:round;stroke-linejoin:round"></line><line x1="294.26" y1="381.52" x2="294.26" y2="122.6" style="fill:none;stroke:#fff;stroke-linecap:round;stroke-linejoin:round"></line><line x1="398.88" y1="355.92" x2="398.88" y2="122.6" style="fill:none;stroke:#263238;stroke-linecap:round;stroke-linejoin:round"></line><line x1="320.93" y1="149.13" x2="423" y2="149.13" style="fill:none;stroke:#263238;stroke-linecap:round;stroke-linejoin:round"></line><line x1="320.93" y1="183.49" x2="423" y2="183.49" style="fill:none;stroke:#263238;stroke-linecap:round;stroke-linejoin:round"></line><line x1="320.93" y1="217.86" x2="423" y2="217.86" style="fill:none;stroke:#263238;stroke-linecap:round;stroke-linejoin:round"></line><line x1="320.93" y1="252.22" x2="423" y2="252.22" style="fill:none;stroke:#263238;stroke-linecap:round;stroke-linejoin:round"></line><line x1="320.93" y1="286.59" x2="423" y2="286.59" style="fill:none;stroke:#263238;stroke-linecap:round;stroke-linejoin:round"></line><line x1="320.93" y1="320.95" x2="423" y2="320.95" style="fill:none;stroke:#263238;stroke-linecap:round;stroke-linejoin:round"></line><line x1="320.93" y1="149.13" x2="283.16" y2="149.13" style="fill:none;stroke:#fff;stroke-linecap:round;stroke-linejoin:round"></line><line x1="320.93" y1="183.49" x2="283.16" y2="183.49" style="fill:none;stroke:#fff;stroke-linecap:round;stroke-linejoin:round"></line><line x1="320.93" y1="217.86" x2="283.16" y2="217.86" style="fill:none;stroke:#fff;stroke-linecap:round;stroke-linejoin:round"></line><line x1="320.93" y1="252.22" x2="283.16" y2="252.22" style="fill:none;stroke:#fff;stroke-linecap:round;stroke-linejoin:round"></line><line x1="320.93" y1="286.59" x2="283.16" y2="286.59" style="fill:none;stroke:#fff;stroke-linecap:round;stroke-linejoin:round"></line><line x1="320.93" y1="320.95" x2="283.16" y2="320.95" style="fill:none;stroke:#fff;stroke-linecap:round;stroke-linejoin:round"></line><line x1="283.73" y1="355.32" x2="423" y2="355.32" style="fill:none;stroke:#263238;stroke-linecap:round;stroke-linejoin:round"></line><rect x="96.13" y="137.47" width="123.15" height="243.16" style="fill:#263238;stroke:#263238;stroke-linecap:round;stroke-linejoin:round"></rect><line x1="131.47" y1="163.48" x2="96.75" y2="163.48" style="fill:none;stroke:#fff;stroke-linecap:round;stroke-linejoin:round"></line><line x1="131.47" y1="204.81" x2="96.75" y2="204.81" style="fill:none;stroke:#fff;stroke-linecap:round;stroke-linejoin:round"></line><line x1="131.47" y1="247.73" x2="96.75" y2="247.73" style="fill:none;stroke:#fff;stroke-linecap:round;stroke-linejoin:round"></line><line x1="131.47" y1="292.25" x2="96.75" y2="292.25" style="fill:none;stroke:#fff;stroke-linecap:round;stroke-linejoin:round"></line><line x1="131.47" y1="333.58" x2="96.75" y2="333.58" style="fill:none;stroke:#fff;stroke-linecap:round;stroke-linejoin:round"></line><rect x="131.36" y="137.47" width="87.92" height="243.16" style="fill:#fff;stroke:#263238;stroke-linecap:round;stroke-linejoin:round"></rect><rect x="131.36" y="137.47" width="87.92" height="13.68" style="fill:#263238;stroke:#263238;stroke-linecap:round;stroke-linejoin:round"></rect><rect x="131.36" y="180.04" width="87.92" height="13.68" style="fill:#263238;stroke:#263238;stroke-linecap:round;stroke-linejoin:round"></rect><rect x="131.36" y="223.66" width="87.92" height="13.68" style="fill:#263238;stroke:#263238;stroke-linecap:round;stroke-linejoin:round"></rect><rect x="131.36" y="266.22" width="87.92" height="13.68" style="fill:#263238;stroke:#263238;stroke-linecap:round;stroke-linejoin:round"></rect><rect x="131.36" y="353.32" width="87.92" height="11.7" style="fill:#263238;stroke:#263238;stroke-linecap:round;stroke-linejoin:round"></rect><rect x="131.36" y="308.79" width="87.92" height="13.68" style="fill:#263238;stroke:#263238;stroke-linecap:round;stroke-linejoin:round"></rect><rect x="155.69" y="356.72" width="35.15" height="23.92" style="fill:#263238;stroke:#263238;stroke-linecap:round;stroke-linejoin:round"></rect><line x1="147.58" y1="144.94" x2="147.58" y2="355.37" style="fill:none;stroke:#263238;stroke-linecap:round;stroke-linejoin:round"></line><line x1="174.62" y1="144.94" x2="174.62" y2="355.37" style="fill:none;stroke:#263238;stroke-linecap:round;stroke-linejoin:round"></line><line x1="201.65" y1="144.94" x2="201.65" y2="355.37" style="fill:none;stroke:#263238;stroke-linecap:round;stroke-linejoin:round"></line><line x1="105.68" y1="144.94" x2="105.68" y2="355.37" style="fill:none;stroke:#fff;stroke-linecap:round;stroke-linejoin:round"></line><line x1="114.24" y1="144.94" x2="114.24" y2="355.37" style="fill:none;stroke:#fff;stroke-linecap:round;stroke-linejoin:round"></line><line x1="122.8" y1="144.94" x2="122.8" y2="355.37" style="fill:none;stroke:#fff;stroke-linecap:round;stroke-linejoin:round"></line><rect x="91.42" y="134.68" width="131.86" height="11.62" style="fill:#263238;stroke:#263238;stroke-linecap:round;stroke-linejoin:round"></rect><rect x="127.3" y="134.68" width="95.97" height="11.62" style="fill:#fff;stroke:#263238;stroke-linecap:round;stroke-linejoin:round"></rect><rect x="91.42" y="177.93" width="131.86" height="11.62" style="fill:#263238;stroke:#263238;stroke-linecap:round;stroke-linejoin:round"></rect><rect x="127.3" y="177.93" width="95.97" height="11.62" style="fill:#fff;stroke:#263238;stroke-linecap:round;stroke-linejoin:round"></rect><rect x="91.42" y="221.19" width="131.86" height="11.62" style="fill:#263238;stroke:#263238;stroke-linecap:round;stroke-linejoin:round"></rect><rect x="127.3" y="221.19" width="95.97" height="11.62" style="fill:#fff;stroke:#263238;stroke-linecap:round;stroke-linejoin:round"></rect><rect x="91.42" y="264.44" width="131.86" height="11.62" style="fill:#263238;stroke:#263238;stroke-linecap:round;stroke-linejoin:round"></rect><rect x="127.3" y="264.44" width="95.97" height="11.62" style="fill:#fff;stroke:#263238;stroke-linecap:round;stroke-linejoin:round"></rect><rect x="91.42" y="307.7" width="131.86" height="11.62" style="fill:#263238;stroke:#263238;stroke-linecap:round;stroke-linejoin:round"></rect><rect x="127.3" y="307.7" width="95.97" height="11.62" style="fill:#fff;stroke:#263238;stroke-linecap:round;stroke-linejoin:round"></rect><rect x="91.42" y="350.96" width="131.86" height="11.62" style="fill:#263238;stroke:#263238;stroke-linecap:round;stroke-linejoin:round"></rect><rect x="127.3" y="350.96" width="95.97" height="11.62" style="fill:#fff;stroke:#263238;stroke-linecap:round;stroke-linejoin:round"></rect><line x1="131.47" y1="163.48" x2="218.53" y2="163.48" style="fill:none;stroke:#263238;stroke-linecap:round;stroke-linejoin:round"></line><line x1="131.47" y1="204.81" x2="218.53" y2="204.81" style="fill:none;stroke:#263238;stroke-linecap:round;stroke-linejoin:round"></line><line x1="131.47" y1="247.73" x2="218.53" y2="247.73" style="fill:none;stroke:#263238;stroke-linecap:round;stroke-linejoin:round"></line><line x1="131.47" y1="292.25" x2="218.53" y2="292.25" style="fill:none;stroke:#263238;stroke-linecap:round;stroke-linejoin:round"></line><line x1="131.47" y1="333.58" x2="218.53" y2="333.58" style="fill:none;stroke:#263238;stroke-linecap:round;stroke-linejoin:round"></line><rect x="131.71" y="374.39" width="81.51" height="2.87" style="fill:#134074;stroke:#263238;stroke-linecap:round;stroke-linejoin:round"></rect><rect x="131.71" y="377.26" width="105.56" height="4.31" style="fill:#134074;stroke:#263238;stroke-linecap:round;stroke-linejoin:round"></rect></g><g id="freepik--Trees--inject-44"><path d="M122.59,352.72s14.4,1.43,21.7,10.36c0,0,7.71-10.35,21.57-10.14a28,28,0,1,0-43.28-.19Z" style="fill:#134074"></path><path d="M122.59,352.72s14.4,1.43,21.7,10.36c0,0,7.71-10.35,21.57-10.14a28,28,0,1,0-43.28-.19Z" style="fill:#fff;opacity:0.5"></path><polygon points="143.81 309.06 143.33 381.26 145.76 381.26 143.81 309.06" style="fill:#263238"></polygon><path d="M144.54,360.35s4.87-8.75,13.62-11.42c0,0-9.24,2.19-13.86,9.72Z" style="fill:#263238"></path><path d="M144.54,335.56s4.87-8.76,13.62-11.43c0,0-9.24,2.19-13.86,9.72Z" style="fill:#263238"></path><path d="M144.54,348s4.87-8.76,13.62-11.43c0,0-9.24,2.19-13.86,9.72Z" style="fill:#263238"></path><path d="M143.82,341.88s-4.69-8.75-13.13-11.43c0,0,8.91,2.19,13.37,9.73Z" style="fill:#263238"></path><path d="M143.82,354s-4.69-8.75-13.13-11.42c0,0,8.91,2.19,13.37,9.72Z" style="fill:#263238"></path><path d="M190.43,347.25s17.16,1.7,25.87,12.34c0,0,9.19-12.33,25.7-12.08a33.36,33.36,0,1,0-51.58-.23Z" style="fill:#134074"></path><path d="M190.43,347.25s17.16,1.7,25.87,12.34c0,0,9.19-12.33,25.7-12.08a33.36,33.36,0,1,0-51.58-.23Z" style="fill:#fff;opacity:0.5"></path><polygon points="215.73 295.21 215.15 381.26 218.04 381.26 215.73 295.21" style="fill:#263238"></polygon><path d="M216.6,356.34s5.79-10.43,16.22-13.61c0,0-11,2.6-16.51,11.59Z" style="fill:#263238"></path><path d="M216.6,326.79s5.79-10.43,16.22-13.62c0,0-11,2.61-16.51,11.59Z" style="fill:#263238"></path><path d="M216.6,341.57s5.79-10.43,16.22-13.62c0,0-11,2.61-16.51,11.59Z" style="fill:#263238"></path><path d="M215.74,334.32s-5.59-10.43-15.66-13.61c0,0,10.63,2.6,15.94,11.59Z" style="fill:#263238"></path><path d="M215.74,348.81s-5.59-10.43-15.66-13.62c0,0,10.63,2.61,15.94,11.59Z" style="fill:#263238"></path><path d="M259.52,357.19s12.16,1.2,18.31,8.73a23.52,23.52,0,0,1,18.2-8.55,23.62,23.62,0,1,0-36.51-.16Z" style="fill:#134074"></path><path d="M259.52,357.19s12.16,1.2,18.31,8.73a23.52,23.52,0,0,1,18.2-8.55,23.62,23.62,0,1,0-36.51-.16Z" style="fill:#fff;opacity:0.5"></path><polygon points="277.43 320.35 277.02 381.26 279.07 381.26 277.43 320.35" style="fill:#263238"></polygon><path d="M278.05,363.62s4.1-7.38,11.48-9.63c0,0-7.79,1.84-11.69,8.2Z" style="fill:#263238"></path><path d="M278.05,342.71s4.1-7.39,11.48-9.64c0,0-7.79,1.84-11.69,8.2Z" style="fill:#263238"></path><path d="M278.05,353.17s4.1-7.39,11.48-9.64c0,0-7.79,1.84-11.69,8.2Z" style="fill:#263238"></path><path d="M277.44,348s-4-7.39-11.08-9.64c0,0,7.52,1.84,11.28,8.2Z" style="fill:#263238"></path><path d="M277.44,358.29s-4-7.38-11.08-9.64c0,0,7.52,1.85,11.28,8.21Z" style="fill:#263238"></path></g></svg>