<svg xmlns="http://www.w3.org/2000/svg" viewBox="0 0 750 500"><g id="freepik--background-complete--inject-3"><path d="M690.27,149H580.8s10.85-29.65,27.56-29.65,21.93,20.46,21.93,20.46,11.27-11.11,20.53-11.11,17.31,14.69,17.31,14.69S681.21,135.45,690.27,149Z" style="fill:#ebebeb"></path><path d="M597.89,103.13H546.74s11.43-16.56,20.43-16.56,11.67,11,11.67,11,6.36-5.15,12.25-4.23S597.89,103.13,597.89,103.13Z" style="fill:#ebebeb"></path><path d="M359.73,154.53H260.09s13.65-30.47,28.24-32.37,21.58,22.63,21.58,22.63,9.42-8.67,16.82-8.67,13.12,11.42,13.12,11.42S354.66,139.72,359.73,154.53Z" style="fill:#ebebeb"></path><path d="M127.05,77.62H59.73S71.3,55.55,83.84,55.23,103,71.93,103,71.93,122.49,56.27,127.05,77.62Z" style="fill:#ebebeb"></path><path d="M450.15,186.27H404.72s7.81-14.9,16.27-15.12,12.92,11.28,12.92,11.28S447.08,171.86,450.15,186.27Z" style="fill:#ebebeb"></path><path d="M173.63,101.13H128.2S136,86.23,144.47,86s12.92,11.28,12.92,11.28S170.56,86.72,173.63,101.13Z" style="fill:#ebebeb"></path><rect x="140.88" y="121.89" width="55.5" height="210.48" transform="translate(337.27 454.26) rotate(180)" style="fill:#ebebeb"></rect><rect x="140.88" y="107.93" width="47.6" height="13.96" transform="translate(329.37 229.81) rotate(180)" style="fill:#c7c7c7"></rect><rect x="146.97" y="129.17" width="43.33" height="157.35" transform="translate(337.27 415.69) rotate(180)" style="fill:#dbdbdb"></rect><rect x="146.97" y="144.19" width="43.33" height="3.72" transform="translate(337.27 292.1) rotate(180)" style="fill:#fff"></rect><rect x="146.97" y="159.59" width="43.33" height="3.72" transform="translate(337.27 322.9) rotate(180)" style="fill:#fff"></rect><rect x="146.97" y="174.99" width="43.33" height="3.72" transform="translate(337.27 353.7) rotate(180)" style="fill:#fff"></rect><rect x="146.97" y="190.39" width="43.33" height="3.72" transform="translate(337.27 384.51) rotate(180)" style="fill:#fff"></rect><rect x="146.97" y="205.8" width="43.33" height="3.72" transform="translate(337.27 415.31) rotate(180)" style="fill:#fff"></rect><rect x="146.97" y="221.2" width="43.33" height="3.72" transform="translate(337.27 446.11) rotate(180)" style="fill:#fff"></rect><rect x="146.97" y="236.6" width="43.33" height="3.72" transform="translate(337.27 476.92) rotate(180)" style="fill:#fff"></rect><rect x="146.97" y="252" width="43.33" height="3.72" transform="translate(337.27 507.72) rotate(180)" style="fill:#fff"></rect><rect x="146.97" y="267.4" width="43.33" height="3.72" transform="translate(337.27 538.52) rotate(180)" style="fill:#fff"></rect><rect x="146.97" y="282.8" width="43.33" height="3.72" transform="translate(337.27 569.32) rotate(180)" style="fill:#fff"></rect><rect x="106.12" y="121.89" width="34.76" height="210.48" transform="translate(247.01 454.26) rotate(180)" style="fill:#dbdbdb"></rect><rect x="111.34" y="107.93" width="29.55" height="13.96" transform="translate(252.22 229.81) rotate(180)" style="fill:#a6a6a6"></rect><rect x="109.36" y="129.17" width="26.73" height="157.35" transform="translate(245.46 415.69) rotate(180)" style="fill:#c7c7c7"></rect><rect x="109.36" y="144.19" width="26.73" height="3.72" transform="translate(245.46 292.1) rotate(180)" style="fill:#fff"></rect><rect x="109.36" y="159.59" width="26.73" height="3.72" transform="translate(245.46 322.9) rotate(180)" style="fill:#fff"></rect><rect x="109.36" y="174.99" width="26.73" height="3.72" transform="translate(245.46 353.7) rotate(180)" style="fill:#fff"></rect><rect x="109.36" y="190.39" width="26.73" height="3.72" transform="translate(245.46 384.51) rotate(180)" style="fill:#fff"></rect><rect x="109.36" y="205.8" width="26.73" height="3.72" transform="translate(245.46 415.31) rotate(180)" style="fill:#fff"></rect><rect x="109.36" y="221.2" width="26.73" height="3.72" transform="translate(245.46 446.11) rotate(180)" style="fill:#fff"></rect><rect x="109.36" y="236.6" width="26.73" height="3.72" transform="translate(245.46 476.92) rotate(180)" style="fill:#fff"></rect><rect x="109.36" y="252" width="26.73" height="3.72" transform="translate(245.46 507.72) rotate(180)" style="fill:#fff"></rect><rect x="109.36" y="267.4" width="26.73" height="3.72" transform="translate(245.46 538.52) rotate(180)" style="fill:#fff"></rect><rect x="109.36" y="282.8" width="26.73" height="3.72" transform="translate(245.46 569.32) rotate(180)" style="fill:#fff"></rect><rect x="506.33" y="69.4" width="51.22" height="262.97" style="fill:#ebebeb"></rect><rect x="506.33" y="64.16" width="52.45" height="5.24" transform="translate(1065.1 133.57) rotate(180)" style="fill:#c7c7c7"></rect><rect x="547.72" y="77.12" width="5.19" height="255.25" style="fill:#fff"></rect><rect x="538.53" y="77.12" width="5.19" height="255.25" style="fill:#fff"></rect><rect x="529.34" y="77.12" width="5.19" height="255.25" style="fill:#fff"></rect><rect x="520.15" y="77.12" width="5.19" height="255.25" style="fill:#fff"></rect><rect x="510.96" y="77.12" width="5.19" height="255.25" style="fill:#fff"></rect><rect x="547.72" y="83.74" width="5.19" height="10.34" transform="translate(1100.63 177.81) rotate(180)" style="fill:#ebebeb"></rect><rect x="538.53" y="83.74" width="5.19" height="10.34" transform="translate(1082.25 177.81) rotate(180)" style="fill:#ebebeb"></rect><rect x="529.34" y="83.74" width="5.19" height="10.34" transform="translate(1063.87 177.81) rotate(180)" style="fill:#ebebeb"></rect><rect x="520.15" y="83.74" width="5.19" height="10.34" transform="translate(1045.48 177.81) rotate(180)" style="fill:#ebebeb"></rect><rect x="510.96" y="83.74" width="5.19" height="10.34" transform="translate(1027.1 177.81) rotate(180)" style="fill:#ebebeb"></rect><rect x="547.72" y="100.54" width="5.19" height="10.34" transform="translate(1100.63 211.41) rotate(180)" style="fill:#ebebeb"></rect><rect x="538.53" y="100.54" width="5.19" height="10.34" transform="translate(1082.25 211.41) rotate(180)" style="fill:#ebebeb"></rect><rect x="529.34" y="100.54" width="5.19" height="10.34" transform="translate(1063.87 211.41) rotate(180)" style="fill:#ebebeb"></rect><rect x="520.15" y="100.54" width="5.19" height="10.34" transform="translate(1045.48 211.41) rotate(180)" style="fill:#ebebeb"></rect><rect x="510.96" y="100.54" width="5.19" height="10.34" transform="translate(1027.1 211.41) rotate(180)" style="fill:#ebebeb"></rect><rect x="547.72" y="117.34" width="5.19" height="10.34" transform="translate(1100.63 245.01) rotate(180)" style="fill:#ebebeb"></rect><rect x="538.53" y="117.34" width="5.19" height="10.34" transform="translate(1082.25 245.01) rotate(180)" style="fill:#ebebeb"></rect><rect x="529.34" y="117.34" width="5.19" height="10.34" transform="translate(1063.87 245.01) rotate(180)" style="fill:#ebebeb"></rect><rect x="520.15" y="117.34" width="5.19" height="10.34" transform="translate(1045.48 245.01) rotate(180)" style="fill:#ebebeb"></rect><rect x="510.96" y="117.34" width="5.19" height="10.34" transform="translate(1027.1 245.01) rotate(180)" style="fill:#ebebeb"></rect><rect x="547.72" y="134.14" width="5.19" height="10.34" transform="translate(1100.63 278.61) rotate(180)" style="fill:#ebebeb"></rect><rect x="538.53" y="134.14" width="5.19" height="10.34" transform="translate(1082.25 278.61) rotate(180)" style="fill:#ebebeb"></rect><rect x="529.34" y="134.14" width="5.19" height="10.34" transform="translate(1063.87 278.61) rotate(180)" style="fill:#ebebeb"></rect><rect x="520.15" y="134.14" width="5.19" height="10.34" transform="translate(1045.48 278.61) rotate(180)" style="fill:#ebebeb"></rect><rect x="510.96" y="134.14" width="5.19" height="10.34" transform="translate(1027.1 278.61) rotate(180)" style="fill:#ebebeb"></rect><rect x="547.72" y="150.94" width="5.19" height="10.34" transform="translate(1100.63 312.21) rotate(180)" style="fill:#ebebeb"></rect><rect x="538.53" y="150.94" width="5.19" height="10.34" transform="translate(1082.25 312.21) rotate(180)" style="fill:#ebebeb"></rect><rect x="529.34" y="150.94" width="5.19" height="10.34" transform="translate(1063.87 312.21) rotate(180)" style="fill:#ebebeb"></rect><rect x="520.15" y="150.94" width="5.19" height="10.34" transform="translate(1045.48 312.21) rotate(180)" style="fill:#ebebeb"></rect><rect x="510.96" y="150.94" width="5.19" height="10.34" transform="translate(1027.1 312.21) rotate(180)" style="fill:#ebebeb"></rect><rect x="547.72" y="167.73" width="5.19" height="10.34" transform="translate(1100.63 345.81) rotate(180)" style="fill:#ebebeb"></rect><rect x="538.53" y="167.73" width="5.19" height="10.34" transform="translate(1082.25 345.81) rotate(180)" style="fill:#ebebeb"></rect><rect x="529.34" y="167.73" width="5.19" height="10.34" transform="translate(1063.87 345.81) rotate(180)" style="fill:#ebebeb"></rect><rect x="520.15" y="167.73" width="5.19" height="10.34" transform="translate(1045.48 345.81) rotate(180)" style="fill:#ebebeb"></rect><rect x="510.96" y="167.73" width="5.19" height="10.34" transform="translate(1027.1 345.81) rotate(180)" style="fill:#ebebeb"></rect><rect x="547.72" y="184.53" width="5.19" height="10.34" transform="translate(1100.63 379.41) rotate(180)" style="fill:#ebebeb"></rect><rect x="538.53" y="184.53" width="5.19" height="10.34" transform="translate(1082.25 379.41) rotate(180)" style="fill:#ebebeb"></rect><rect x="529.34" y="184.53" width="5.19" height="10.34" transform="translate(1063.87 379.41) rotate(180)" style="fill:#ebebeb"></rect><rect x="520.15" y="184.53" width="5.19" height="10.34" transform="translate(1045.48 379.41) rotate(180)" style="fill:#ebebeb"></rect><rect x="510.96" y="184.53" width="5.19" height="10.34" transform="translate(1027.1 379.41) rotate(180)" style="fill:#ebebeb"></rect><rect x="547.72" y="201.33" width="5.19" height="10.34" transform="translate(1100.63 413.01) rotate(180)" style="fill:#ebebeb"></rect><rect x="538.53" y="201.33" width="5.19" height="10.34" transform="translate(1082.25 413.01) rotate(180)" style="fill:#ebebeb"></rect><rect x="529.34" y="201.33" width="5.19" height="10.34" transform="translate(1063.87 413.01) rotate(180)" style="fill:#ebebeb"></rect><rect x="520.15" y="201.33" width="5.19" height="10.34" transform="translate(1045.48 413.01) rotate(180)" style="fill:#ebebeb"></rect><rect x="510.96" y="201.33" width="5.19" height="10.34" transform="translate(1027.1 413.01) rotate(180)" style="fill:#ebebeb"></rect><rect x="547.72" y="218.13" width="5.19" height="10.34" transform="translate(1100.63 446.61) rotate(180)" style="fill:#ebebeb"></rect><rect x="538.53" y="218.13" width="5.19" height="10.34" transform="translate(1082.25 446.61) rotate(180)" style="fill:#ebebeb"></rect><rect x="529.34" y="218.13" width="5.19" height="10.34" transform="translate(1063.87 446.61) rotate(180)" style="fill:#ebebeb"></rect><rect x="520.15" y="218.13" width="5.19" height="10.34" transform="translate(1045.48 446.61) rotate(180)" style="fill:#ebebeb"></rect><rect x="510.96" y="218.13" width="5.19" height="10.34" transform="translate(1027.1 446.61) rotate(180)" style="fill:#ebebeb"></rect><rect x="547.72" y="234.93" width="5.19" height="10.34" transform="translate(1100.63 480.21) rotate(180)" style="fill:#ebebeb"></rect><rect x="538.53" y="234.93" width="5.19" height="10.34" transform="translate(1082.25 480.21) rotate(180)" style="fill:#ebebeb"></rect><rect x="529.34" y="234.93" width="5.19" height="10.34" transform="translate(1063.87 480.21) rotate(180)" style="fill:#ebebeb"></rect><rect x="520.15" y="234.93" width="5.19" height="10.34" transform="translate(1045.48 480.21) rotate(180)" style="fill:#ebebeb"></rect><rect x="510.96" y="234.93" width="5.19" height="10.34" transform="translate(1027.1 480.21) rotate(180)" style="fill:#ebebeb"></rect><rect x="547.72" y="251.73" width="5.19" height="10.34" transform="translate(1100.63 513.81) rotate(180)" style="fill:#ebebeb"></rect><rect x="538.53" y="251.73" width="5.19" height="10.34" transform="translate(1082.25 513.81) rotate(180)" style="fill:#ebebeb"></rect><rect x="529.34" y="251.73" width="5.19" height="10.34" transform="translate(1063.87 513.81) rotate(180)" style="fill:#ebebeb"></rect><rect x="520.15" y="251.73" width="5.19" height="10.34" transform="translate(1045.48 513.81) rotate(180)" style="fill:#ebebeb"></rect><rect x="510.96" y="251.73" width="5.19" height="10.34" transform="translate(1027.1 513.81) rotate(180)" style="fill:#ebebeb"></rect><rect x="547.72" y="268.53" width="5.19" height="10.34" transform="translate(1100.63 547.41) rotate(180)" style="fill:#ebebeb"></rect><rect x="538.53" y="268.53" width="5.19" height="10.34" transform="translate(1082.25 547.41) rotate(180)" style="fill:#ebebeb"></rect><rect x="529.34" y="268.53" width="5.19" height="10.34" transform="translate(1063.87 547.41) rotate(180)" style="fill:#ebebeb"></rect><rect x="520.15" y="268.53" width="5.19" height="10.34" transform="translate(1045.48 547.41) rotate(180)" style="fill:#ebebeb"></rect><rect x="510.96" y="268.53" width="5.19" height="10.34" transform="translate(1027.1 547.41) rotate(180)" style="fill:#ebebeb"></rect><rect x="547.72" y="285.33" width="5.19" height="10.34" transform="translate(1100.63 581) rotate(180)" style="fill:#ebebeb"></rect><rect x="538.53" y="285.33" width="5.19" height="10.34" transform="translate(1082.25 581) rotate(180)" style="fill:#ebebeb"></rect><rect x="529.34" y="285.33" width="5.19" height="10.34" transform="translate(1063.87 581) rotate(180)" style="fill:#ebebeb"></rect><rect x="520.15" y="285.33" width="5.19" height="10.34" transform="translate(1045.48 581) rotate(180)" style="fill:#ebebeb"></rect><rect x="510.96" y="285.33" width="5.19" height="10.34" transform="translate(1027.1 581) rotate(180)" style="fill:#ebebeb"></rect><rect x="547.72" y="302.13" width="5.19" height="30.23" style="fill:#ebebeb"></rect><rect x="538.53" y="302.13" width="5.19" height="30.23" style="fill:#ebebeb"></rect><rect x="529.34" y="302.13" width="5.19" height="30.23" style="fill:#ebebeb"></rect><rect x="520.15" y="302.13" width="5.19" height="30.23" style="fill:#ebebeb"></rect><rect x="510.96" y="302.13" width="5.19" height="30.23" style="fill:#ebebeb"></rect><rect x="473.44" y="69.4" width="32.88" height="262.97" style="fill:#dbdbdb"></rect><rect x="472.02" y="64.16" width="34.3" height="5.24" transform="translate(978.35 133.57) rotate(180)" style="fill:#c7c7c7"></rect><rect x="496.51" y="77.12" width="5.19" height="255.25" style="fill:#c7c7c7"></rect><rect x="487.31" y="77.12" width="5.19" height="255.25" style="fill:#c7c7c7"></rect><rect x="478.12" y="77.12" width="5.19" height="255.25" style="fill:#c7c7c7"></rect><rect x="496.51" y="83.74" width="5.19" height="10.34" transform="translate(998.2 177.81) rotate(180)" style="fill:#dbdbdb"></rect><rect x="487.31" y="83.74" width="5.19" height="10.34" transform="translate(979.82 177.81) rotate(180)" style="fill:#dbdbdb"></rect><rect x="478.12" y="83.74" width="5.19" height="10.34" transform="translate(961.43 177.81) rotate(180)" style="fill:#dbdbdb"></rect><rect x="496.51" y="100.54" width="5.19" height="10.34" transform="translate(998.2 211.41) rotate(180)" style="fill:#dbdbdb"></rect><rect x="487.31" y="100.54" width="5.19" height="10.34" transform="translate(979.82 211.41) rotate(180)" style="fill:#dbdbdb"></rect><rect x="478.12" y="100.54" width="5.19" height="10.34" transform="translate(961.43 211.41) rotate(180)" style="fill:#dbdbdb"></rect><rect x="496.51" y="117.34" width="5.19" height="10.34" transform="translate(998.2 245.01) rotate(180)" style="fill:#dbdbdb"></rect><rect x="487.31" y="117.34" width="5.19" height="10.34" transform="translate(979.82 245.01) rotate(180)" style="fill:#dbdbdb"></rect><rect x="478.12" y="117.34" width="5.19" height="10.34" transform="translate(961.43 245.01) rotate(180)" style="fill:#dbdbdb"></rect><rect x="496.51" y="134.14" width="5.19" height="10.34" transform="translate(998.2 278.61) rotate(180)" style="fill:#dbdbdb"></rect><rect x="487.31" y="134.14" width="5.19" height="10.34" transform="translate(979.82 278.61) rotate(180)" style="fill:#dbdbdb"></rect><rect x="478.12" y="134.14" width="5.19" height="10.34" transform="translate(961.43 278.61) rotate(180)" style="fill:#dbdbdb"></rect><rect x="496.51" y="150.94" width="5.19" height="10.34" transform="translate(998.2 312.21) rotate(180)" style="fill:#dbdbdb"></rect><rect x="487.31" y="150.94" width="5.19" height="10.34" transform="translate(979.82 312.21) rotate(180)" style="fill:#dbdbdb"></rect><rect x="478.12" y="150.94" width="5.19" height="10.34" transform="translate(961.43 312.21) rotate(180)" style="fill:#dbdbdb"></rect><rect x="496.51" y="167.73" width="5.19" height="10.34" transform="translate(998.2 345.81) rotate(180)" style="fill:#dbdbdb"></rect><rect x="487.31" y="167.73" width="5.19" height="10.34" transform="translate(979.82 345.81) rotate(180)" style="fill:#dbdbdb"></rect><rect x="478.12" y="167.73" width="5.19" height="10.34" transform="translate(961.43 345.81) rotate(180)" style="fill:#dbdbdb"></rect><rect x="496.51" y="184.53" width="5.19" height="10.34" transform="translate(998.2 379.41) rotate(180)" style="fill:#dbdbdb"></rect><rect x="487.31" y="184.53" width="5.19" height="10.34" transform="translate(979.82 379.41) rotate(180)" style="fill:#dbdbdb"></rect><rect x="478.12" y="184.53" width="5.19" height="10.34" transform="translate(961.43 379.41) rotate(180)" style="fill:#dbdbdb"></rect><rect x="496.51" y="201.33" width="5.19" height="10.34" transform="translate(998.2 413.01) rotate(180)" style="fill:#dbdbdb"></rect><rect x="487.31" y="201.33" width="5.19" height="10.34" transform="translate(979.82 413.01) rotate(180)" style="fill:#dbdbdb"></rect><rect x="478.12" y="201.33" width="5.19" height="10.34" transform="translate(961.43 413.01) rotate(180)" style="fill:#dbdbdb"></rect><rect x="496.51" y="218.13" width="5.19" height="10.34" transform="translate(998.2 446.61) rotate(180)" style="fill:#dbdbdb"></rect><rect x="487.31" y="218.13" width="5.19" height="10.34" transform="translate(979.82 446.61) rotate(180)" style="fill:#dbdbdb"></rect><rect x="478.12" y="218.13" width="5.19" height="10.34" transform="translate(961.43 446.61) rotate(180)" style="fill:#dbdbdb"></rect><rect x="496.51" y="234.93" width="5.19" height="10.34" transform="translate(998.2 480.21) rotate(180)" style="fill:#dbdbdb"></rect><rect x="487.31" y="234.93" width="5.19" height="10.34" transform="translate(979.82 480.21) rotate(180)" style="fill:#dbdbdb"></rect><rect x="478.12" y="234.93" width="5.19" height="10.34" transform="translate(961.43 480.21) rotate(180)" style="fill:#dbdbdb"></rect><rect x="496.51" y="251.73" width="5.19" height="10.34" transform="translate(998.2 513.81) rotate(180)" style="fill:#dbdbdb"></rect><rect x="487.31" y="251.73" width="5.19" height="10.34" transform="translate(979.82 513.81) rotate(180)" style="fill:#dbdbdb"></rect><rect x="478.12" y="251.73" width="5.19" height="10.34" transform="translate(961.43 513.81) rotate(180)" style="fill:#dbdbdb"></rect><rect x="496.51" y="268.53" width="5.19" height="10.34" transform="translate(998.2 547.41) rotate(180)" style="fill:#dbdbdb"></rect><rect x="487.31" y="268.53" width="5.19" height="10.34" transform="translate(979.82 547.41) rotate(180)" style="fill:#dbdbdb"></rect><rect x="478.12" y="268.53" width="5.19" height="10.34" transform="translate(961.43 547.41) rotate(180)" style="fill:#dbdbdb"></rect><rect x="496.51" y="285.33" width="5.19" height="10.34" transform="translate(998.2 581) rotate(180)" style="fill:#dbdbdb"></rect><rect x="487.31" y="285.33" width="5.19" height="10.34" transform="translate(979.82 581) rotate(180)" style="fill:#dbdbdb"></rect><rect x="478.12" y="285.33" width="5.19" height="10.34" transform="translate(961.43 581) rotate(180)" style="fill:#dbdbdb"></rect><rect x="496.51" y="302.13" width="5.19" height="30.23" style="fill:#dbdbdb"></rect><rect x="487.31" y="302.13" width="5.19" height="30.23" style="fill:#dbdbdb"></rect><rect x="478.12" y="302.13" width="5.19" height="30.23" style="fill:#dbdbdb"></rect><rect x="637.98" y="176.92" width="61.55" height="155.44" style="fill:#ebebeb"></rect><rect x="637.98" y="171.69" width="63.03" height="5.24" transform="translate(1338.99 348.62) rotate(180)" style="fill:#c7c7c7"></rect><rect x="687.73" y="184.65" width="6.23" height="147.72" style="fill:#fff"></rect><rect x="676.68" y="184.65" width="6.24" height="147.72" style="fill:#fff"></rect><rect x="665.64" y="184.65" width="6.23" height="147.72" style="fill:#fff"></rect><rect x="654.59" y="184.65" width="6.24" height="147.72" style="fill:#fff"></rect><rect x="643.55" y="184.65" width="6.23" height="147.72" style="fill:#fff"></rect><rect x="687.73" y="191.26" width="6.24" height="10.34" transform="translate(1381.7 392.86) rotate(180)" style="fill:#ebebeb"></rect><rect x="676.68" y="191.26" width="6.24" height="10.34" transform="translate(1359.61 392.86) rotate(180)" style="fill:#ebebeb"></rect><rect x="665.64" y="191.26" width="6.24" height="10.34" transform="translate(1337.51 392.86) rotate(180)" style="fill:#ebebeb"></rect><rect x="654.59" y="191.26" width="6.24" height="10.34" transform="translate(1315.42 392.86) rotate(180)" style="fill:#ebebeb"></rect><rect x="643.55" y="191.26" width="6.24" height="10.34" transform="translate(1293.33 392.86) rotate(180)" style="fill:#ebebeb"></rect><rect x="687.73" y="208.06" width="6.24" height="10.34" transform="translate(1381.7 426.46) rotate(180)" style="fill:#ebebeb"></rect><rect x="676.68" y="208.06" width="6.24" height="10.34" transform="translate(1359.61 426.46) rotate(180)" style="fill:#ebebeb"></rect><rect x="665.64" y="208.06" width="6.24" height="10.34" transform="translate(1337.51 426.46) rotate(180)" style="fill:#ebebeb"></rect><rect x="654.59" y="208.06" width="6.24" height="10.34" transform="translate(1315.42 426.46) rotate(180)" style="fill:#ebebeb"></rect><rect x="643.55" y="208.06" width="6.24" height="10.34" transform="translate(1293.33 426.46) rotate(180)" style="fill:#ebebeb"></rect><rect x="687.73" y="224.86" width="6.24" height="10.34" transform="translate(1381.7 460.06) rotate(180)" style="fill:#ebebeb"></rect><rect x="676.68" y="224.86" width="6.24" height="10.34" transform="translate(1359.61 460.06) rotate(180)" style="fill:#ebebeb"></rect><rect x="665.64" y="224.86" width="6.24" height="10.34" transform="translate(1337.51 460.06) rotate(180)" style="fill:#ebebeb"></rect><rect x="654.59" y="224.86" width="6.24" height="10.34" transform="translate(1315.42 460.06) rotate(180)" style="fill:#ebebeb"></rect><rect x="643.55" y="224.86" width="6.24" height="10.34" transform="translate(1293.33 460.06) rotate(180)" style="fill:#ebebeb"></rect><rect x="687.73" y="241.66" width="6.24" height="10.34" transform="translate(1381.7 493.66) rotate(180)" style="fill:#ebebeb"></rect><rect x="676.68" y="241.66" width="6.24" height="10.34" transform="translate(1359.61 493.66) rotate(180)" style="fill:#ebebeb"></rect><rect x="665.64" y="241.66" width="6.24" height="10.34" transform="translate(1337.51 493.66) rotate(180)" style="fill:#ebebeb"></rect><rect x="654.59" y="241.66" width="6.24" height="10.34" transform="translate(1315.42 493.66) rotate(180)" style="fill:#ebebeb"></rect><rect x="643.55" y="241.66" width="6.24" height="10.34" transform="translate(1293.33 493.66) rotate(180)" style="fill:#ebebeb"></rect><rect x="687.73" y="258.46" width="6.24" height="10.34" transform="translate(1381.7 527.26) rotate(180)" style="fill:#ebebeb"></rect><rect x="676.68" y="258.46" width="6.24" height="10.34" transform="translate(1359.61 527.26) rotate(180)" style="fill:#ebebeb"></rect><rect x="665.64" y="258.46" width="6.24" height="10.34" transform="translate(1337.51 527.26) rotate(180)" style="fill:#ebebeb"></rect><rect x="654.59" y="258.46" width="6.24" height="10.34" transform="translate(1315.42 527.26) rotate(180)" style="fill:#ebebeb"></rect><rect x="643.55" y="258.46" width="6.24" height="10.34" transform="translate(1293.33 527.26) rotate(180)" style="fill:#ebebeb"></rect><rect x="687.73" y="275.26" width="6.24" height="10.34" transform="translate(1381.7 560.86) rotate(180)" style="fill:#ebebeb"></rect><rect x="676.68" y="275.26" width="6.24" height="10.34" transform="translate(1359.61 560.86) rotate(180)" style="fill:#ebebeb"></rect><rect x="665.64" y="275.26" width="6.24" height="10.34" transform="translate(1337.51 560.86) rotate(180)" style="fill:#ebebeb"></rect><rect x="654.59" y="275.26" width="6.24" height="10.34" transform="translate(1315.42 560.86) rotate(180)" style="fill:#ebebeb"></rect><rect x="643.55" y="275.26" width="6.24" height="10.34" transform="translate(1293.33 560.86) rotate(180)" style="fill:#ebebeb"></rect><rect x="687.73" y="292.06" width="6.24" height="10.34" transform="translate(1381.7 594.46) rotate(180)" style="fill:#ebebeb"></rect><rect x="676.68" y="292.06" width="6.24" height="10.34" transform="translate(1359.61 594.46) rotate(180)" style="fill:#ebebeb"></rect><rect x="665.64" y="292.06" width="6.24" height="10.34" transform="translate(1337.51 594.46) rotate(180)" style="fill:#ebebeb"></rect><rect x="654.59" y="292.06" width="6.24" height="10.34" transform="translate(1315.42 594.46) rotate(180)" style="fill:#ebebeb"></rect><rect x="643.55" y="292.06" width="6.24" height="10.34" transform="translate(1293.33 594.46) rotate(180)" style="fill:#ebebeb"></rect><rect x="687.73" y="308.86" width="6.24" height="10.34" transform="translate(1381.7 628.06) rotate(180)" style="fill:#ebebeb"></rect><rect x="676.68" y="308.86" width="6.24" height="10.34" transform="translate(1359.61 628.06) rotate(180)" style="fill:#ebebeb"></rect><rect x="665.64" y="308.86" width="6.24" height="10.34" transform="translate(1337.51 628.06) rotate(180)" style="fill:#ebebeb"></rect><rect x="654.59" y="308.86" width="6.24" height="10.34" transform="translate(1315.42 628.06) rotate(180)" style="fill:#ebebeb"></rect><rect x="643.55" y="308.86" width="6.24" height="10.34" transform="translate(1293.33 628.06) rotate(180)" style="fill:#ebebeb"></rect><rect x="687.73" y="325.66" width="6.23" height="6.71" style="fill:#ebebeb"></rect><rect x="676.68" y="325.66" width="6.24" height="6.71" style="fill:#ebebeb"></rect><rect x="665.64" y="325.66" width="6.23" height="6.71" style="fill:#ebebeb"></rect><rect x="654.59" y="325.66" width="6.24" height="6.71" style="fill:#ebebeb"></rect><rect x="643.55" y="325.66" width="6.23" height="6.71" style="fill:#ebebeb"></rect><rect x="598.46" y="176.92" width="39.52" height="155.44" style="fill:#dbdbdb"></rect><rect x="596.75" y="171.69" width="41.23" height="5.24" transform="translate(1234.74 348.62) rotate(180)" style="fill:#c7c7c7"></rect><rect x="626.18" y="184.65" width="6.24" height="147.72" style="fill:#c7c7c7"></rect><rect x="615.13" y="184.65" width="6.23" height="147.72" style="fill:#c7c7c7"></rect><rect x="604.08" y="184.65" width="6.24" height="147.72" style="fill:#c7c7c7"></rect><rect x="626.18" y="191.26" width="6.24" height="10.34" transform="translate(1258.6 392.86) rotate(180)" style="fill:#dbdbdb"></rect><rect x="615.13" y="191.26" width="6.24" height="10.34" transform="translate(1236.5 392.86) rotate(180)" style="fill:#dbdbdb"></rect><rect x="604.09" y="191.26" width="6.24" height="10.34" transform="translate(1214.41 392.86) rotate(180)" style="fill:#dbdbdb"></rect><rect x="626.18" y="208.06" width="6.24" height="10.34" transform="translate(1258.6 426.46) rotate(180)" style="fill:#dbdbdb"></rect><rect x="615.13" y="208.06" width="6.24" height="10.34" transform="translate(1236.5 426.46) rotate(180)" style="fill:#dbdbdb"></rect><rect x="604.09" y="208.06" width="6.24" height="10.34" transform="translate(1214.41 426.46) rotate(180)" style="fill:#dbdbdb"></rect><rect x="626.18" y="224.86" width="6.24" height="10.34" transform="translate(1258.6 460.06) rotate(180)" style="fill:#dbdbdb"></rect><rect x="615.13" y="224.86" width="6.24" height="10.34" transform="translate(1236.5 460.06) rotate(180)" style="fill:#dbdbdb"></rect><rect x="604.09" y="224.86" width="6.24" height="10.34" transform="translate(1214.41 460.06) rotate(180)" style="fill:#dbdbdb"></rect><rect x="626.18" y="241.66" width="6.24" height="10.34" transform="translate(1258.6 493.66) rotate(180)" style="fill:#dbdbdb"></rect><rect x="615.13" y="241.66" width="6.24" height="10.34" transform="translate(1236.5 493.66) rotate(180)" style="fill:#dbdbdb"></rect><rect x="604.09" y="241.66" width="6.24" height="10.34" transform="translate(1214.41 493.66) rotate(180)" style="fill:#dbdbdb"></rect><rect x="626.18" y="258.46" width="6.24" height="10.34" transform="translate(1258.6 527.26) rotate(180)" style="fill:#dbdbdb"></rect><rect x="615.13" y="258.46" width="6.24" height="10.34" transform="translate(1236.5 527.26) rotate(180)" style="fill:#dbdbdb"></rect><rect x="604.09" y="258.46" width="6.24" height="10.34" transform="translate(1214.41 527.26) rotate(180)" style="fill:#dbdbdb"></rect><rect x="626.18" y="275.26" width="6.24" height="10.34" transform="translate(1258.6 560.86) rotate(180)" style="fill:#dbdbdb"></rect><rect x="615.13" y="275.26" width="6.24" height="10.34" transform="translate(1236.5 560.86) rotate(180)" style="fill:#dbdbdb"></rect><rect x="604.09" y="275.26" width="6.24" height="10.34" transform="translate(1214.41 560.86) rotate(180)" style="fill:#dbdbdb"></rect><rect x="626.18" y="292.06" width="6.24" height="10.34" transform="translate(1258.6 594.46) rotate(180)" style="fill:#dbdbdb"></rect><rect x="615.13" y="292.06" width="6.24" height="10.34" transform="translate(1236.5 594.46) rotate(180)" style="fill:#dbdbdb"></rect><rect x="604.09" y="292.06" width="6.24" height="10.34" transform="translate(1214.41 594.46) rotate(180)" style="fill:#dbdbdb"></rect><rect x="626.18" y="308.86" width="6.24" height="10.34" transform="translate(1258.6 628.06) rotate(180)" style="fill:#dbdbdb"></rect><rect x="615.13" y="308.86" width="6.24" height="10.34" transform="translate(1236.5 628.06) rotate(180)" style="fill:#dbdbdb"></rect><rect x="604.09" y="308.86" width="6.24" height="10.34" transform="translate(1214.41 628.06) rotate(180)" style="fill:#dbdbdb"></rect><rect x="626.18" y="325.66" width="6.24" height="6.71" style="fill:#dbdbdb"></rect><rect x="615.13" y="325.66" width="6.23" height="6.71" style="fill:#dbdbdb"></rect><rect x="604.08" y="325.66" width="6.24" height="6.71" style="fill:#dbdbdb"></rect><rect x="89.03" y="151.27" width="25.94" height="30.64" transform="translate(204.01 333.18) rotate(180)" style="fill:#dbdbdb"></rect><rect x="72.59" y="151.27" width="16.45" height="31.77" transform="translate(161.62 334.3) rotate(180)" style="fill:#c7c7c7"></rect><rect x="71.49" y="164.8" width="16.32" height="18.24" transform="translate(159.31 347.83) rotate(180)" style="fill:#dbdbdb"></rect><rect x="61.31" y="164.8" width="10.18" height="18.24" transform="translate(132.8 347.83) rotate(180)" style="fill:#c7c7c7"></rect><rect x="82.98" y="179.92" width="41.95" height="152.45" transform="translate(207.9 512.29) rotate(180)" style="fill:#ebebeb"></rect><rect x="106.94" y="186.47" width="13.19" height="5.39" transform="translate(227.07 378.33) rotate(180)" style="fill:#fff"></rect><rect x="90.07" y="186.47" width="13.19" height="5.39" transform="translate(193.32 378.33) rotate(180)" style="fill:#fff"></rect><rect x="106.94" y="195.62" width="13.19" height="5.39" transform="translate(227.07 396.63) rotate(180)" style="fill:#fff"></rect><rect x="90.07" y="195.62" width="13.19" height="5.39" transform="translate(193.32 396.63) rotate(180)" style="fill:#fff"></rect><rect x="106.94" y="204.77" width="13.19" height="5.39" transform="translate(227.07 414.93) rotate(180)" style="fill:#fff"></rect><rect x="90.07" y="204.77" width="13.19" height="5.39" transform="translate(193.32 414.93) rotate(180)" style="fill:#fff"></rect><rect x="106.94" y="213.92" width="13.19" height="5.39" transform="translate(227.07 433.24) rotate(180)" style="fill:#fff"></rect><rect x="90.07" y="213.92" width="13.19" height="5.39" transform="translate(193.32 433.24) rotate(180)" style="fill:#fff"></rect><rect x="106.94" y="223.07" width="13.19" height="5.39" transform="translate(227.07 451.54) rotate(180)" style="fill:#fff"></rect><rect x="90.07" y="223.07" width="13.19" height="5.39" transform="translate(193.32 451.54) rotate(180)" style="fill:#fff"></rect><rect x="106.94" y="232.22" width="13.19" height="5.39" transform="translate(227.07 469.84) rotate(180)" style="fill:#fff"></rect><rect x="90.07" y="232.22" width="13.19" height="5.39" transform="translate(193.32 469.84) rotate(180)" style="fill:#fff"></rect><rect x="106.94" y="241.37" width="13.19" height="5.39" transform="translate(227.07 488.14) rotate(180)" style="fill:#fff"></rect><rect x="90.07" y="241.37" width="13.19" height="5.39" transform="translate(193.32 488.14) rotate(180)" style="fill:#fff"></rect><rect x="106.94" y="250.53" width="13.19" height="5.39" transform="translate(227.07 506.44) rotate(180)" style="fill:#fff"></rect><rect x="90.07" y="250.53" width="13.19" height="5.39" transform="translate(193.32 506.44) rotate(180)" style="fill:#fff"></rect><rect x="106.94" y="259.68" width="13.19" height="5.39" transform="translate(227.07 524.74) rotate(180)" style="fill:#fff"></rect><rect x="90.07" y="259.68" width="13.19" height="5.39" transform="translate(193.32 524.74) rotate(180)" style="fill:#fff"></rect><rect x="106.94" y="268.83" width="13.19" height="5.39" transform="translate(227.07 543.04) rotate(180)" style="fill:#fff"></rect><rect x="90.07" y="268.83" width="13.19" height="5.39" transform="translate(193.32 543.04) rotate(180)" style="fill:#fff"></rect><rect x="106.94" y="277.98" width="13.19" height="5.39" transform="translate(227.07 561.34) rotate(180)" style="fill:#fff"></rect><rect x="90.07" y="277.98" width="13.19" height="5.39" transform="translate(193.32 561.34) rotate(180)" style="fill:#fff"></rect><rect x="106.94" y="287.13" width="13.19" height="5.39" transform="translate(227.07 579.64) rotate(180)" style="fill:#fff"></rect><rect x="90.07" y="287.13" width="13.19" height="5.39" transform="translate(193.32 579.64) rotate(180)" style="fill:#fff"></rect><rect x="106.94" y="296.28" width="13.19" height="5.39" transform="translate(227.07 597.95) rotate(180)" style="fill:#fff"></rect><rect x="90.07" y="296.28" width="13.19" height="5.39" transform="translate(193.32 597.95) rotate(180)" style="fill:#fff"></rect><rect x="106.94" y="305.43" width="13.19" height="5.39" transform="translate(227.07 616.25) rotate(180)" style="fill:#fff"></rect><rect x="90.07" y="305.43" width="13.19" height="5.39" transform="translate(193.32 616.25) rotate(180)" style="fill:#fff"></rect><rect x="48.99" y="179.92" width="33.99" height="152.45" transform="translate(131.97 512.29) rotate(180)" style="fill:#c7c7c7"></rect><rect x="52.4" y="305.43" width="10.83" height="5.39" style="fill:#ebebeb"></rect><rect x="66.25" y="305.43" width="10.83" height="5.39" style="fill:#ebebeb"></rect><rect x="52.4" y="296.28" width="10.83" height="5.39" style="fill:#ebebeb"></rect><rect x="66.25" y="296.28" width="10.83" height="5.39" style="fill:#ebebeb"></rect><rect x="52.4" y="287.13" width="10.83" height="5.39" style="fill:#ebebeb"></rect><rect x="66.25" y="287.13" width="10.83" height="5.39" style="fill:#ebebeb"></rect><rect x="52.4" y="277.98" width="10.83" height="5.39" style="fill:#ebebeb"></rect><rect x="66.25" y="277.98" width="10.83" height="5.39" style="fill:#ebebeb"></rect><rect x="52.4" y="268.83" width="10.83" height="5.39" style="fill:#ebebeb"></rect><rect x="66.25" y="268.83" width="10.83" height="5.39" style="fill:#ebebeb"></rect><rect x="52.4" y="259.68" width="10.83" height="5.39" style="fill:#ebebeb"></rect><rect x="66.25" y="259.68" width="10.83" height="5.39" style="fill:#ebebeb"></rect><rect x="52.4" y="250.53" width="10.83" height="5.39" style="fill:#ebebeb"></rect><rect x="66.25" y="250.53" width="10.83" height="5.39" style="fill:#ebebeb"></rect><rect x="52.4" y="241.37" width="10.83" height="5.39" style="fill:#ebebeb"></rect><rect x="66.25" y="241.37" width="10.83" height="5.39" style="fill:#ebebeb"></rect><rect x="52.4" y="232.22" width="10.83" height="5.39" style="fill:#ebebeb"></rect><rect x="66.25" y="232.22" width="10.83" height="5.39" style="fill:#ebebeb"></rect><rect x="52.4" y="223.07" width="10.83" height="5.39" style="fill:#ebebeb"></rect><rect x="66.25" y="223.07" width="10.83" height="5.39" style="fill:#ebebeb"></rect><rect x="52.4" y="213.92" width="10.83" height="5.39" style="fill:#ebebeb"></rect><rect x="66.25" y="213.92" width="10.83" height="5.39" style="fill:#ebebeb"></rect><rect x="52.4" y="204.77" width="10.83" height="5.39" style="fill:#ebebeb"></rect><rect x="66.25" y="204.77" width="10.83" height="5.39" style="fill:#ebebeb"></rect><rect x="52.4" y="195.62" width="10.83" height="5.39" style="fill:#ebebeb"></rect><rect x="66.25" y="195.62" width="10.83" height="5.39" style="fill:#ebebeb"></rect><rect x="52.4" y="186.47" width="10.83" height="5.39" style="fill:#ebebeb"></rect><rect x="66.25" y="186.47" width="10.83" height="5.39" style="fill:#ebebeb"></rect><rect x="559.3" y="233.03" width="49.48" height="99.34" transform="translate(1168.09 565.4) rotate(180)" style="fill:#c7c7c7"></rect><rect x="592.24" y="241.63" width="8.76" height="6.09" transform="translate(1193.25 489.34) rotate(180)" style="fill:#dbdbdb"></rect><rect x="592.24" y="254.63" width="8.76" height="6.09" transform="translate(1193.25 515.34) rotate(180)" style="fill:#dbdbdb"></rect><rect x="592.24" y="267.63" width="8.76" height="6.09" transform="translate(1193.25 541.34) rotate(180)" style="fill:#dbdbdb"></rect><rect x="592.24" y="280.63" width="8.76" height="6.09" transform="translate(1193.25 567.34) rotate(180)" style="fill:#dbdbdb"></rect><rect x="592.24" y="293.63" width="8.76" height="6.09" transform="translate(1193.25 593.34) rotate(180)" style="fill:#dbdbdb"></rect><rect x="592.24" y="306.63" width="8.76" height="6.09" transform="translate(1193.25 619.34) rotate(180)" style="fill:#dbdbdb"></rect><rect x="592.24" y="319.62" width="8.76" height="6.09" transform="translate(1193.25 645.34) rotate(180)" style="fill:#dbdbdb"></rect><rect x="579.65" y="241.63" width="8.76" height="6.09" transform="translate(1168.05 489.34) rotate(180)" style="fill:#dbdbdb"></rect><rect x="579.65" y="254.63" width="8.76" height="6.09" transform="translate(1168.05 515.34) rotate(180)" style="fill:#dbdbdb"></rect><rect x="579.65" y="267.63" width="8.76" height="6.09" transform="translate(1168.05 541.34) rotate(180)" style="fill:#dbdbdb"></rect><rect x="579.65" y="280.63" width="8.76" height="6.09" transform="translate(1168.05 567.34) rotate(180)" style="fill:#dbdbdb"></rect><rect x="579.65" y="293.63" width="8.76" height="6.09" transform="translate(1168.05 593.34) rotate(180)" style="fill:#dbdbdb"></rect><rect x="579.65" y="306.63" width="8.76" height="6.09" transform="translate(1168.05 619.34) rotate(180)" style="fill:#dbdbdb"></rect><rect x="579.65" y="319.62" width="8.76" height="6.09" transform="translate(1168.05 645.34) rotate(180)" style="fill:#dbdbdb"></rect><rect x="567.09" y="241.63" width="8.76" height="6.09" transform="translate(1142.93 489.34) rotate(180)" style="fill:#dbdbdb"></rect><rect x="567.09" y="254.63" width="8.76" height="6.09" transform="translate(1142.93 515.34) rotate(180)" style="fill:#dbdbdb"></rect><rect x="567.09" y="267.63" width="8.76" height="6.09" transform="translate(1142.93 541.34) rotate(180)" style="fill:#dbdbdb"></rect><rect x="567.09" y="280.63" width="8.76" height="6.09" transform="translate(1142.93 567.34) rotate(180)" style="fill:#dbdbdb"></rect><rect x="567.09" y="293.63" width="8.76" height="6.09" transform="translate(1142.93 593.34) rotate(180)" style="fill:#dbdbdb"></rect><rect x="567.09" y="306.63" width="8.76" height="6.09" transform="translate(1142.93 619.34) rotate(180)" style="fill:#dbdbdb"></rect><rect x="567.09" y="319.62" width="8.76" height="6.09" transform="translate(1142.93 645.34) rotate(180)" style="fill:#dbdbdb"></rect><rect x="559.3" y="222.68" width="32.94" height="10.35" transform="translate(1151.55 455.71) rotate(180)" style="fill:#dbdbdb"></rect><rect x="559.3" y="216.27" width="20.88" height="6.41" transform="translate(1139.49 438.95) rotate(180)" style="fill:#ebebeb"></rect><rect x="524.59" y="233.03" width="34.71" height="99.34" transform="translate(1083.9 565.4) rotate(180)" style="fill:#a6a6a6"></rect><rect x="528.14" y="318.65" width="7.13" height="6.09" style="fill:#c7c7c7"></rect><rect x="528.14" y="305.65" width="7.13" height="6.09" style="fill:#c7c7c7"></rect><rect x="528.14" y="292.66" width="7.13" height="6.09" style="fill:#c7c7c7"></rect><rect x="528.14" y="279.66" width="7.13" height="6.09" style="fill:#c7c7c7"></rect><rect x="528.14" y="266.66" width="7.13" height="6.09" style="fill:#c7c7c7"></rect><rect x="528.14" y="253.66" width="7.13" height="6.09" style="fill:#c7c7c7"></rect><rect x="528.14" y="240.66" width="7.13" height="6.09" style="fill:#c7c7c7"></rect><rect x="538.4" y="318.65" width="7.13" height="6.09" style="fill:#c7c7c7"></rect><rect x="538.4" y="305.65" width="7.13" height="6.09" style="fill:#c7c7c7"></rect><rect x="538.4" y="292.66" width="7.13" height="6.09" style="fill:#c7c7c7"></rect><rect x="538.4" y="279.66" width="7.13" height="6.09" style="fill:#c7c7c7"></rect><rect x="538.4" y="266.66" width="7.13" height="6.09" style="fill:#c7c7c7"></rect><rect x="538.4" y="253.66" width="7.13" height="6.09" style="fill:#c7c7c7"></rect><rect x="538.4" y="240.66" width="7.13" height="6.09" style="fill:#c7c7c7"></rect><rect x="548.62" y="318.65" width="7.13" height="6.09" style="fill:#c7c7c7"></rect><rect x="548.62" y="305.65" width="7.13" height="6.09" style="fill:#c7c7c7"></rect><rect x="548.62" y="292.66" width="7.13" height="6.09" style="fill:#c7c7c7"></rect><rect x="548.62" y="279.66" width="7.13" height="6.09" style="fill:#c7c7c7"></rect><rect x="548.62" y="266.66" width="7.13" height="6.09" style="fill:#c7c7c7"></rect><rect x="548.62" y="253.66" width="7.13" height="6.09" style="fill:#c7c7c7"></rect><rect x="548.62" y="240.66" width="7.13" height="6.09" style="fill:#c7c7c7"></rect><rect x="529.85" y="222.68" width="29.45" height="10.35" transform="translate(1089.15 455.71) rotate(180)" style="fill:#c7c7c7"></rect><rect x="543.34" y="216.27" width="15.96" height="6.41" transform="translate(1102.65 438.95) rotate(180)" style="fill:#dbdbdb"></rect><rect x="217.9" y="212.17" width="59.87" height="120.2" transform="translate(495.68 544.53) rotate(180)" style="fill:#c7c7c7"></rect><rect x="257.76" y="222.57" width="10.6" height="7.36" transform="translate(526.12 452.5) rotate(180)" style="fill:#dbdbdb"></rect><rect x="257.76" y="238.3" width="10.6" height="7.36" transform="translate(526.12 483.96) rotate(180)" style="fill:#dbdbdb"></rect><rect x="257.76" y="254.03" width="10.6" height="7.36" transform="translate(526.12 515.42) rotate(180)" style="fill:#dbdbdb"></rect><rect x="257.76" y="269.76" width="10.6" height="7.36" transform="translate(526.12 546.88) rotate(180)" style="fill:#dbdbdb"></rect><rect x="257.76" y="285.49" width="10.6" height="7.36" transform="translate(526.12 578.34) rotate(180)" style="fill:#dbdbdb"></rect><rect x="257.76" y="301.22" width="10.6" height="7.36" transform="translate(526.12 609.8) rotate(180)" style="fill:#dbdbdb"></rect><rect x="257.76" y="316.95" width="10.6" height="7.36" transform="translate(526.12 641.26) rotate(180)" style="fill:#dbdbdb"></rect><rect x="242.52" y="222.57" width="10.59" height="7.36" transform="translate(495.64 452.5) rotate(180)" style="fill:#dbdbdb"></rect><rect x="242.52" y="238.3" width="10.59" height="7.36" transform="translate(495.64 483.96) rotate(180)" style="fill:#dbdbdb"></rect><rect x="242.52" y="254.03" width="10.59" height="7.36" transform="translate(495.64 515.42) rotate(180)" style="fill:#dbdbdb"></rect><rect x="242.52" y="269.76" width="10.59" height="7.36" transform="translate(495.64 546.88) rotate(180)" style="fill:#dbdbdb"></rect><rect x="242.52" y="285.49" width="10.59" height="7.36" transform="translate(495.64 578.34) rotate(180)" style="fill:#dbdbdb"></rect><rect x="242.52" y="301.22" width="10.59" height="7.36" transform="translate(495.64 609.8) rotate(180)" style="fill:#dbdbdb"></rect><rect x="242.52" y="316.95" width="10.59" height="7.36" transform="translate(495.64 641.26) rotate(180)" style="fill:#dbdbdb"></rect><rect x="227.32" y="222.57" width="10.59" height="7.36" transform="translate(465.23 452.5) rotate(180)" style="fill:#dbdbdb"></rect><rect x="227.32" y="238.3" width="10.59" height="7.36" transform="translate(465.23 483.96) rotate(180)" style="fill:#dbdbdb"></rect><rect x="227.32" y="254.03" width="10.59" height="7.36" transform="translate(465.23 515.42) rotate(180)" style="fill:#dbdbdb"></rect><rect x="227.32" y="269.76" width="10.59" height="7.36" transform="translate(465.23 546.88) rotate(180)" style="fill:#dbdbdb"></rect><rect x="227.32" y="285.49" width="10.59" height="7.36" transform="translate(465.23 578.34) rotate(180)" style="fill:#dbdbdb"></rect><rect x="227.32" y="301.22" width="10.59" height="7.36" transform="translate(465.23 609.8) rotate(180)" style="fill:#dbdbdb"></rect><rect x="227.32" y="316.95" width="10.59" height="7.36" transform="translate(465.23 641.26) rotate(180)" style="fill:#dbdbdb"></rect><rect x="217.9" y="199.64" width="39.86" height="12.52" transform="translate(475.67 411.81) rotate(180)" style="fill:#dbdbdb"></rect><rect x="217.9" y="191.89" width="25.27" height="7.75" transform="translate(461.08 391.53) rotate(180)" style="fill:#ebebeb"></rect><rect x="175.9" y="212.17" width="42" height="120.2" transform="translate(393.8 544.53) rotate(180)" style="fill:#a6a6a6"></rect><rect x="180.2" y="315.77" width="8.62" height="7.36" style="fill:#c7c7c7"></rect><rect x="180.2" y="300.04" width="8.62" height="7.36" style="fill:#c7c7c7"></rect><rect x="180.2" y="284.31" width="8.62" height="7.36" style="fill:#c7c7c7"></rect><rect x="180.2" y="268.58" width="8.62" height="7.36" style="fill:#c7c7c7"></rect><rect x="180.2" y="252.85" width="8.62" height="7.36" style="fill:#c7c7c7"></rect><rect x="180.2" y="237.13" width="8.62" height="7.36" style="fill:#c7c7c7"></rect><rect x="180.2" y="221.4" width="8.62" height="7.36" style="fill:#c7c7c7"></rect><rect x="192.61" y="315.77" width="8.62" height="7.36" style="fill:#c7c7c7"></rect><rect x="192.61" y="300.04" width="8.62" height="7.36" style="fill:#c7c7c7"></rect><rect x="192.61" y="284.31" width="8.62" height="7.36" style="fill:#c7c7c7"></rect><rect x="192.61" y="268.58" width="8.62" height="7.36" style="fill:#c7c7c7"></rect><rect x="192.61" y="252.85" width="8.62" height="7.36" style="fill:#c7c7c7"></rect><rect x="192.61" y="237.13" width="8.62" height="7.36" style="fill:#c7c7c7"></rect><rect x="192.61" y="221.4" width="8.62" height="7.36" style="fill:#c7c7c7"></rect><rect x="204.98" y="315.77" width="8.62" height="7.36" style="fill:#c7c7c7"></rect><rect x="204.98" y="300.04" width="8.62" height="7.36" style="fill:#c7c7c7"></rect><rect x="204.98" y="284.31" width="8.62" height="7.36" style="fill:#c7c7c7"></rect><rect x="204.98" y="268.58" width="8.62" height="7.36" style="fill:#c7c7c7"></rect><rect x="204.98" y="252.85" width="8.62" height="7.36" style="fill:#c7c7c7"></rect><rect x="204.98" y="237.13" width="8.62" height="7.36" style="fill:#c7c7c7"></rect><rect x="204.98" y="221.4" width="8.62" height="7.36" style="fill:#c7c7c7"></rect><rect x="182.26" y="199.64" width="35.64" height="12.52" transform="translate(400.17 411.81) rotate(180)" style="fill:#c7c7c7"></rect><rect x="198.59" y="191.89" width="19.31" height="7.75" transform="translate(416.49 391.53) rotate(180)" style="fill:#dbdbdb"></rect></g><g id="freepik--Floor--inject-3"><polygon points="47.45 332.34 129.34 332.1 211.22 332.01 375 331.85 538.78 332.01 620.66 332.1 702.55 332.34 620.66 332.59 538.78 332.68 375 332.84 211.22 332.68 129.34 332.59 47.45 332.34" style="fill:#263238"></polygon></g><g id="freepik--Building--inject-3"><rect x="390.72" y="259.18" width="71.58" height="72.83" transform="translate(853.01 591.2) rotate(180)" style="fill:#455a64"></rect><rect x="319.14" y="216.62" width="71.58" height="115.4" transform="translate(709.85 548.63) rotate(180)" style="fill:#455a64"></rect><rect x="291.77" y="216.62" width="27.36" height="115.4" style="fill:#37474f"></rect><rect x="368.13" y="226.11" width="14.1" height="6.09" transform="translate(750.36 458.31) rotate(180)" style="fill:#263238"></rect><rect x="368.13" y="239.11" width="14.1" height="6.09" transform="translate(750.36 484.31) rotate(180)" style="fill:#263238"></rect><rect x="368.13" y="252.11" width="14.1" height="6.09" transform="translate(750.36 510.3) rotate(180)" style="fill:#263238"></rect><rect x="368.13" y="265.11" width="14.1" height="6.09" transform="translate(750.36 536.3) rotate(180)" style="fill:#263238"></rect><rect x="368.13" y="278.11" width="14.1" height="6.09" transform="translate(750.36 562.3) rotate(180)" style="fill:#263238"></rect><rect x="368.13" y="291.11" width="14.1" height="6.09" transform="translate(750.36 588.3) rotate(180)" style="fill:#263238"></rect><rect x="368.13" y="304.11" width="14.1" height="6.09" transform="translate(750.36 614.3) rotate(180)" style="fill:#263238"></rect><rect x="347.85" y="226.11" width="14.1" height="6.09" transform="translate(709.8 458.31) rotate(180)" style="fill:#263238"></rect><rect x="347.85" y="239.11" width="14.1" height="6.09" transform="translate(709.8 484.31) rotate(180)" style="fill:#263238"></rect><rect x="347.85" y="252.11" width="14.1" height="6.09" transform="translate(709.8 510.3) rotate(180)" style="fill:#263238"></rect><rect x="347.85" y="265.11" width="14.1" height="6.09" transform="translate(709.8 536.3) rotate(180)" style="fill:#263238"></rect><rect x="347.85" y="278.11" width="14.1" height="6.09" transform="translate(709.8 562.3) rotate(180)" style="fill:#263238"></rect><rect x="347.85" y="291.11" width="14.1" height="6.09" transform="translate(709.8 588.3) rotate(180)" style="fill:#263238"></rect><rect x="347.85" y="304.11" width="14.1" height="6.09" transform="translate(709.8 614.3) rotate(180)" style="fill:#263238"></rect><rect x="327.63" y="226.11" width="14.1" height="6.09" transform="translate(669.35 458.31) rotate(180)" style="fill:#263238"></rect><rect x="327.63" y="239.11" width="14.1" height="6.09" transform="translate(669.35 484.31) rotate(180)" style="fill:#263238"></rect><rect x="327.63" y="252.11" width="14.1" height="6.09" transform="translate(669.35 510.3) rotate(180)" style="fill:#263238"></rect><rect x="327.63" y="265.11" width="14.1" height="6.09" transform="translate(669.35 536.3) rotate(180)" style="fill:#263238"></rect><rect x="327.63" y="278.11" width="14.1" height="6.09" transform="translate(669.35 562.3) rotate(180)" style="fill:#263238"></rect><rect x="327.63" y="291.11" width="14.1" height="6.09" transform="translate(669.35 588.3) rotate(180)" style="fill:#263238"></rect><rect x="327.63" y="304.11" width="14.1" height="6.09" transform="translate(669.35 614.3) rotate(180)" style="fill:#263238"></rect><rect x="439.71" y="265.11" width="14.1" height="6.09" transform="translate(893.51 536.3) rotate(180)" style="fill:#263238"></rect><rect x="439.71" y="278.11" width="14.1" height="6.09" transform="translate(893.51 562.3) rotate(180)" style="fill:#263238"></rect><rect x="439.71" y="291.11" width="14.1" height="6.09" transform="translate(893.51 588.3) rotate(180)" style="fill:#263238"></rect><rect x="439.71" y="304.11" width="14.1" height="6.09" transform="translate(893.51 614.3) rotate(180)" style="fill:#263238"></rect><rect x="419.43" y="265.11" width="14.1" height="6.09" transform="translate(852.96 536.3) rotate(180)" style="fill:#263238"></rect><rect x="419.43" y="278.11" width="14.1" height="6.09" transform="translate(852.96 562.3) rotate(180)" style="fill:#263238"></rect><rect x="419.43" y="291.11" width="14.1" height="6.09" transform="translate(852.96 588.3) rotate(180)" style="fill:#263238"></rect><rect x="419.43" y="304.11" width="14.1" height="6.09" transform="translate(852.96 614.3) rotate(180)" style="fill:#263238"></rect><rect x="399.2" y="265.11" width="14.1" height="6.09" transform="translate(812.5 536.3) rotate(180)" style="fill:#263238"></rect><rect x="399.2" y="278.11" width="14.1" height="6.09" transform="translate(812.5 562.3) rotate(180)" style="fill:#263238"></rect><rect x="399.2" y="291.11" width="14.1" height="6.09" transform="translate(812.5 588.3) rotate(180)" style="fill:#263238"></rect><rect x="399.2" y="304.11" width="14.1" height="6.09" transform="translate(812.5 614.3) rotate(180)" style="fill:#263238"></rect><rect x="298.41" y="226.11" width="14.1" height="6.09" transform="translate(610.91 458.31) rotate(180)" style="fill:#263238"></rect><rect x="298.41" y="239.11" width="14.1" height="6.09" transform="translate(610.91 484.31) rotate(180)" style="fill:#263238"></rect><rect x="298.41" y="252.11" width="14.1" height="6.09" transform="translate(610.91 510.3) rotate(180)" style="fill:#263238"></rect><rect x="298.41" y="265.11" width="14.1" height="6.09" transform="translate(610.91 536.3) rotate(180)" style="fill:#263238"></rect><rect x="298.41" y="278.11" width="14.1" height="6.09" transform="translate(610.91 562.3) rotate(180)" style="fill:#263238"></rect><rect x="298.41" y="291.11" width="14.1" height="6.09" transform="translate(610.91 588.3) rotate(180)" style="fill:#263238"></rect><rect x="298.41" y="304.11" width="14.1" height="6.09" transform="translate(610.91 614.3) rotate(180)" style="fill:#263238"></rect><rect x="351.11" y="182.72" width="2.54" height="33.9" style="fill:#c7c7c7"></rect><rect x="353.66" y="182.72" width="2.54" height="33.9" style="fill:#dbdbdb"></rect><rect x="316.6" y="182.72" width="2.54" height="33.9" style="fill:#c7c7c7"></rect><rect x="319.14" y="182.72" width="2.54" height="33.9" style="fill:#dbdbdb"></rect><rect x="385.63" y="182.72" width="2.54" height="33.9" style="fill:#c7c7c7"></rect><rect x="388.17" y="182.72" width="2.54" height="33.9" style="fill:#dbdbdb"></rect><rect x="422.69" y="225.2" width="2.54" height="33.9" style="fill:#c7c7c7"></rect><rect x="425.23" y="225.2" width="2.54" height="33.9" style="fill:#dbdbdb"></rect><rect x="457.21" y="225.2" width="2.54" height="33.9" style="fill:#c7c7c7"></rect><rect x="459.75" y="225.2" width="2.54" height="33.9" style="fill:#dbdbdb"></rect><rect x="291.77" y="182.72" width="2.54" height="33.9" style="fill:#c7c7c7"></rect><rect x="294.32" y="182.72" width="2.54" height="33.9" style="fill:#dbdbdb"></rect></g></svg>