<svg xmlns="http://www.w3.org/2000/svg" viewBox="0 0 500 500"><g id="freepik--background-complete--inject-80"><path d="M173.63,105.78H60.45S71.67,75.13,88.94,75.13s22.68,21.16,22.68,21.16,11.65-11.5,21.22-11.5S150.74,100,150.74,100,164.26,91.81,173.63,105.78Z" style="fill:#ebebeb"></path><path d="M439.55,173.46H386.66s11.82-17.13,21.13-17.13,12.06,11.42,12.06,11.42,6.58-5.33,12.66-4.38S439.55,173.46,439.55,173.46Z" style="fill:#ebebeb"></path><path d="M248.51,63.65H195.62s11.82-17.12,21.13-17.12,12.06,11.41,12.06,11.41,6.58-5.33,12.66-4.37S248.51,63.65,248.51,63.65Z" style="fill:#ebebeb"></path><path d="M384.84,111.83h-103s14.11-31.5,29.2-33.47,22.32,23.41,22.32,23.41,9.73-9,17.38-9,13.57,11.81,13.57,11.81S379.59,96.52,384.84,111.83Z" style="fill:#ebebeb"></path></g><g id="freepik--Shadow--inject-80"><ellipse cx="341.07" cy="442.62" rx="108.82" ry="12.53" style="fill:#ebebeb"></ellipse></g><g id="freepik--House--inject-80"><rect x="169.02" y="171.54" width="87.13" height="118.8" style="fill:#134074"></rect><polygon points="73.16 290.34 169.02 290.34 169.02 171.54 73.16 135.83 73.16 175.32 73.16 290.34" style="fill:#134074"></polygon><g style="opacity:0.30000000000000004"><polygon points="73.16 290.34 169.02 290.34 169.02 171.54 73.16 135.83 73.16 175.32 73.16 290.34" style="fill:#fff"></polygon></g><polygon points="160.13 131.59 68.2 131.59 173.46 170.78 265.4 170.78 160.13 131.59" style="fill:#455a64"></polygon><rect x="173.46" y="170.77" width="91.93" height="2.4" style="fill:#263238"></rect><polygon points="173.46 173.17 68.2 133.99 68.2 131.59 173.46 170.78 173.46 173.17" style="fill:#37474f"></polygon><rect x="169.02" y="181.16" width="79.77" height="23.28" style="fill:#455a64"></rect><rect x="245.18" y="181.16" width="3.61" height="23.28" style="fill:#263238"></rect><rect x="183.63" y="181.16" width="1.64" height="23.28" style="fill:#134074"></rect><rect x="199.93" y="181.16" width="1.64" height="23.28" style="fill:#134074"></rect><rect x="216.23" y="181.16" width="1.64" height="23.28" style="fill:#134074"></rect><rect x="232.53" y="181.16" width="1.64" height="23.28" style="fill:#134074"></rect><polygon points="152.93 221.85 73.16 221.85 73.16 152.38 152.93 181.16 152.93 221.85" style="fill:#455a64"></polygon><polygon points="89.42 158.25 89.42 221.85 87.77 221.85 87.77 157.65 89.42 158.25" style="fill:#134074"></polygon><rect x="73.16" y="204.44" width="79.77" height="1.65" style="fill:#134074"></rect><polygon points="105.71 164.13 105.71 221.85 104.07 221.85 104.07 163.53 105.71 164.13" style="fill:#134074"></polygon><polygon points="122.02 170.01 122.02 221.85 120.38 221.85 120.38 169.41 122.02 170.01" style="fill:#134074"></polygon><polygon points="138.32 175.9 138.32 221.85 136.67 221.85 136.67 175.3 138.32 175.9" style="fill:#134074"></polygon><rect x="58.02" y="221.85" width="106.16" height="68.49" style="fill:#134074"></rect><rect x="58.02" y="221.85" width="99.43" height="68.49" style="fill:#fff;opacity:0.5"></rect><rect x="125.41" y="241.73" width="21.42" height="48.61" style="fill:#fff"></rect><rect x="141.59" y="268.02" width="3.97" height="1.1" style="fill:#dbdbdb"></rect><rect x="128.2" y="244.22" width="15.84" height="22.7" style="fill:#37474f"></rect><rect x="127.93" y="269.84" width="15.84" height="17.62" style="fill:#37474f"></rect><g style="opacity:0.1"><polygon points="144.04 245.2 144.04 253.26 130.38 266.92 128.2 266.92 128.2 261.04 144.04 245.2" style="fill:#fff"></polygon><polygon points="143.57 269.85 127.92 285.5 127.92 281.46 139.54 269.85 143.57 269.85" style="fill:#fff"></polygon><polygon points="144.04 265.35 144.04 266.92 142.46 266.92 144.04 265.35" style="fill:#fff"></polygon><polygon points="137.5 244.23 128.2 253.53 128.2 249.49 133.47 244.23 137.5 244.23" style="fill:#fff"></polygon><polygon points="143.76 272.82 143.76 273.84 130.14 287.46 129.12 287.46 143.76 272.82" style="fill:#fff"></polygon></g><rect x="122.42" y="241.73" width="2.99" height="48.61" style="fill:#134074"></rect><rect x="65.86" y="241.73" width="14.61" height="23.28" transform="translate(146.32 506.73) rotate(180)" style="fill:#455a64"></rect><rect x="65.86" y="241.73" width="3.61" height="23.28" transform="translate(135.32 506.73) rotate(180)" style="fill:#263238"></rect><rect x="83.05" y="241.73" width="14.61" height="23.28" transform="translate(180.71 506.73) rotate(180)" style="fill:#455a64"></rect><rect x="83.05" y="241.73" width="3.61" height="23.28" transform="translate(169.71 506.73) rotate(180)" style="fill:#263238"></rect><rect x="100.24" y="241.73" width="14.61" height="23.28" transform="translate(215.1 506.73) rotate(180)" style="fill:#455a64"></rect><rect x="100.24" y="241.73" width="3.61" height="23.28" transform="translate(204.1 506.73) rotate(180)" style="fill:#263238"></rect><rect x="188.52" y="221.85" width="70.75" height="68.49" style="fill:#134074"></rect><rect x="188.52" y="221.85" width="70.75" height="68.49" style="fill:#fff;opacity:0.30000000000000004"></rect><rect x="259.27" y="221.85" width="51.1" height="68.49" style="fill:#134074"></rect><rect x="196.54" y="241.66" width="54.7" height="48.68" style="fill:#455a64"></rect><rect x="199.88" y="244.64" width="51.37" height="1" style="fill:#37474f"></rect><rect x="199.88" y="248.12" width="51.37" height="1" style="fill:#37474f"></rect><rect x="199.88" y="251.59" width="51.37" height="1" style="fill:#37474f"></rect><rect x="199.88" y="255.07" width="51.37" height="1" style="fill:#37474f"></rect><rect x="199.88" y="258.55" width="51.37" height="1" style="fill:#37474f"></rect><rect x="199.88" y="262.02" width="51.37" height="1" style="fill:#37474f"></rect><rect x="199.88" y="265.5" width="51.37" height="1" style="fill:#37474f"></rect><rect x="199.88" y="268.98" width="51.37" height="1" style="fill:#37474f"></rect><rect x="199.88" y="272.46" width="51.37" height="1" style="fill:#37474f"></rect><rect x="199.88" y="275.93" width="51.37" height="1" style="fill:#37474f"></rect><rect x="199.88" y="279.41" width="51.37" height="1" style="fill:#37474f"></rect><rect x="199.88" y="282.89" width="51.37" height="1" style="fill:#37474f"></rect><rect x="199.88" y="286.36" width="51.37" height="1" style="fill:#37474f"></rect><rect x="196.54" y="241.66" width="3.33" height="48.68" style="fill:#263238"></rect><rect x="196.54" y="230.13" width="13.71" height="5.85" transform="translate(406.8 466.1) rotate(180)" style="fill:#455a64"></rect><rect x="196.54" y="230.13" width="3.33" height="5.85" transform="translate(396.42 466.1) rotate(180)" style="fill:#263238"></rect><rect x="217.04" y="230.13" width="13.71" height="5.85" transform="translate(447.79 466.1) rotate(180)" style="fill:#455a64"></rect><rect x="217.04" y="230.13" width="3.33" height="5.85" transform="translate(437.41 466.1) rotate(180)" style="fill:#263238"></rect><rect x="237.53" y="230.13" width="13.71" height="5.85" transform="translate(488.78 466.1) rotate(180)" style="fill:#455a64"></rect><rect x="237.53" y="230.13" width="3.33" height="5.85" transform="translate(478.4 466.1) rotate(180)" style="fill:#263238"></rect><rect x="295.04" y="230.13" width="10.27" height="5.85" style="fill:#455a64"></rect><rect x="302.82" y="230.13" width="2.5" height="5.85" style="fill:#263238"></rect><rect x="279.68" y="230.13" width="10.27" height="5.85" style="fill:#455a64"></rect><rect x="287.46" y="230.13" width="2.5" height="5.85" style="fill:#263238"></rect><rect x="264.32" y="230.13" width="10.27" height="5.85" style="fill:#455a64"></rect><rect x="272.1" y="230.13" width="2.5" height="5.85" style="fill:#263238"></rect></g><g id="freepik--Floor--inject-80"><polygon points="123.86 290.34 146.91 290.34 206.7 427.71 108.21 427.71 123.86 290.34" style="fill:#dbdbdb"></polygon><polygon points="108.21 427.71 120.52 427.52 132.83 427.42 157.45 427.33 182.07 427.42 194.38 427.52 206.7 427.71 194.38 427.89 182.07 428 157.45 428.08 132.83 427.99 120.52 427.89 108.21 427.71" style="fill:#c7c7c7"></polygon><polygon points="191.82 393.53 181.86 393.72 171.89 393.82 151.96 393.91 132.03 393.82 122.06 393.72 112.1 393.53 122.06 393.35 132.03 393.25 151.96 393.16 171.89 393.25 181.86 393.35 191.82 393.53" style="fill:#c7c7c7"></polygon><path d="M178.72,363.41c-5.26.15-10.53.22-15.8.28l-15.79.09-15.8-.08c-5.27-.06-10.53-.14-15.8-.29,5.27-.16,10.53-.23,15.8-.29l15.8-.09,15.79.09C168.19,363.18,173.46,363.25,178.72,363.41Z" style="fill:#c7c7c7"></path><path d="M166.48,335.28c-4,.15-8,.23-11.94.29l-11.93.08-11.94-.08c-4-.06-8-.13-11.93-.29,4-.16,8-.23,11.93-.29l11.94-.08,11.93.08C158.52,335.05,162.5,335.13,166.48,335.28Z" style="fill:#c7c7c7"></path><path d="M157.34,314.3c-3,.16-6,.23-9.05.29s-6,.05-9.06.09-6,0-9-.09-6-.13-9.05-.29c3-.15,6-.23,9.05-.29s6-.05,9-.08,6,0,9.06.08S154.33,314.15,157.34,314.3Z" style="fill:#c7c7c7"></path><path d="M150.34,298.19c-2.29.15-4.57.23-6.85.29s-4.56,0-6.84.08-4.57,0-6.85-.08-4.56-.14-6.84-.29c2.28-.16,4.56-.23,6.84-.29s4.57-.06,6.85-.09,4.56,0,6.84.09S148.05,298,150.34,298.19Z" style="fill:#c7c7c7"></path><polygon points="47.63 290.34 98.22 290.1 148.82 290.01 250 289.84 351.18 290.01 401.78 290.1 452.37 290.34 401.78 290.58 351.18 290.67 250 290.84 148.82 290.67 98.22 290.58 47.63 290.34" style="fill:#263238"></polygon></g><g id="freepik--Plants--inject-80"><path d="M111.64,307.46H76.21s.08-5.27,3.56-6.67a4.75,4.75,0,0,1,5.56,1.33s1.42-9.7,7.91-9.7,9.6,8.37,9.6,8.37a5,5,0,0,1,5.06-2.06C111.5,299.2,111.64,307.46,111.64,307.46Z" style="fill:#37474f"></path><path d="M291.61,391.77s-1.78-8.3-5.34-9.58-5.72,2.45-5.72,2.45-.83-7.94-5.88-10.31-8.82,2.48-8.82,2.48-3.87-10.07-10.78-10.07-10.39,14.74-10.39,14.74-4.08-4.39-8.26-1.91-4.18,12.2-4.18,12.2Z" style="fill:#37474f"></path><path d="M82.56,307.46H49.88s1.08-4.61,3.24-4.93a3.19,3.19,0,0,1,3.18,1.81s-.1-6.43,4-7.52,7.44,4.58,7.44,4.58,2.54-3.24,6-3S78,303.92,78,303.92,81.17,302.07,82.56,307.46Z" style="fill:#455a64"></path><path d="M238.07,391.77h-40.9s.1-6.08,4.12-7.7a5.48,5.48,0,0,1,6.41,1.54s1.64-11.19,9.13-11.19,11.08,9.65,11.08,9.65a5.74,5.74,0,0,1,5.84-2.37C237.91,382.24,238.07,391.77,238.07,391.77Z" style="fill:#455a64"></path><path d="M164.76,297.41s1.09-5.09,3.26-5.87,3.5,1.5,3.5,1.5.52-4.86,3.6-6.31,5.4,1.52,5.4,1.52,2.37-6.17,6.6-6.17,6.37,9,6.37,9,2.49-2.68,5-1.17,2.56,7.48,2.56,7.48Z" style="fill:#37474f"></path><path d="M198.75,297.41h20.14s0-3-2-3.8a2.71,2.71,0,0,0-3.16.76s-.81-5.51-4.5-5.51-5.45,4.75-5.45,4.75a2.85,2.85,0,0,0-2.88-1.17C198.84,292.71,198.75,297.41,198.75,297.41Z" style="fill:#455a64"></path></g><g id="freepik--Sign--inject-80"><rect x="348.55" y="257.39" width="8.23" height="172.06" style="fill:#dbdbdb"></rect><rect x="356.78" y="257.39" width="1.85" height="172.06" transform="translate(715.41 686.85) rotate(180)" style="fill:#a6a6a6"></rect><rect x="448.98" y="257.39" width="1.85" height="8.23" transform="translate(899.8 523.02) rotate(180)" style="fill:#a6a6a6"></rect><rect x="394.65" y="211.3" width="8.23" height="100.43" transform="translate(137.25 660.27) rotate(-90)" style="fill:#dbdbdb"></rect><rect x="364.52" y="270.68" width="78.19" height="45.57" style="fill:#134074"></rect><g style="opacity:0.2"><rect x="368.26" y="274.54" width="70.72" height="37.86" style="fill:#fff"></rect></g><circle cx="372.37" cy="293.47" r="1.61" style="fill:#134074"></circle><circle cx="434.87" cy="293.47" r="1.61" style="fill:#134074"></circle><path d="M388.92,291.31V279.75h7.7v1.61h-5.87v3.45h4.91v1.52h-4.91v5Z" style="fill:#fff"></path><path d="M402.89,291.39a5.1,5.1,0,0,1-2.26-.5,5.69,5.69,0,0,1-1.75-1.32,6.11,6.11,0,0,1-1.13-1.87,6.26,6.26,0,0,1-.4-2.17,5.73,5.73,0,0,1,.43-2.21,6.24,6.24,0,0,1,1.16-1.88,5.53,5.53,0,0,1,1.76-1.29,5.15,5.15,0,0,1,2.22-.48,4.93,4.93,0,0,1,2.25.51,5.82,5.82,0,0,1,1.75,1.35,6.25,6.25,0,0,1,1.12,1.88,6.1,6.1,0,0,1,.4,2.14,5.91,5.91,0,0,1-.42,2.21,5.57,5.57,0,0,1-1.16,1.86,5.69,5.69,0,0,1-1.77,1.29A5.09,5.09,0,0,1,402.89,291.39Zm-3.68-5.86a5,5,0,0,0,.26,1.58,4.21,4.21,0,0,0,.74,1.35,3.78,3.78,0,0,0,1.16.94,3.38,3.38,0,0,0,1.53.35,3.27,3.27,0,0,0,1.56-.37,3.7,3.7,0,0,0,1.15-1,4.36,4.36,0,0,0,.71-1.35,4.81,4.81,0,0,0,0-3.12,3.93,3.93,0,0,0-.74-1.33,3.6,3.6,0,0,0-1.15-.93,3.26,3.26,0,0,0-1.51-.35,3.21,3.21,0,0,0-1.56.37,3.66,3.66,0,0,0-1.15.95,4.24,4.24,0,0,0-.73,1.34A4.82,4.82,0,0,0,399.21,285.53Z" style="fill:#fff"></path><path d="M410.33,291.31V279.75h5a3.19,3.19,0,0,1,1.45.33,4,4,0,0,1,1.13.85,4.28,4.28,0,0,1,.74,1.21,3.67,3.67,0,0,1,.27,1.37,3.86,3.86,0,0,1-.17,1.13,4.43,4.43,0,0,1-.45,1,3.39,3.39,0,0,1-.72.79,2.77,2.77,0,0,1-.93.49l2.72,4.4h-2.07l-2.5-4h-2.67v4Zm1.82-5.63h3.19a1.52,1.52,0,0,0,.71-.17,1.64,1.64,0,0,0,.54-.48,2.5,2.5,0,0,0,.49-1.52,2.31,2.31,0,0,0-.15-.83,2.42,2.42,0,0,0-.41-.68,1.92,1.92,0,0,0-.59-.47,1.53,1.53,0,0,0-.69-.17h-3.09Z" style="fill:#fff"></path><path d="M391.81,298.31a2,2,0,0,0-.47-.38,4.39,4.39,0,0,0-.72-.39,5.71,5.71,0,0,0-.91-.29,4.31,4.31,0,0,0-1-.11,2.78,2.78,0,0,0-1.7.42,1.38,1.38,0,0,0-.55,1.17,1.31,1.31,0,0,0,.17.69,1.56,1.56,0,0,0,.53.48,4.34,4.34,0,0,0,.9.35c.36.11.77.22,1.25.34a12.65,12.65,0,0,1,1.59.47,4.3,4.3,0,0,1,1.19.63,2.59,2.59,0,0,1,.76.92,3,3,0,0,1,.27,1.33,3.21,3.21,0,0,1-.33,1.51,2.89,2.89,0,0,1-.92,1,4,4,0,0,1-1.34.58,6.64,6.64,0,0,1-1.64.19,8.1,8.1,0,0,1-2.55-.4,7.34,7.34,0,0,1-2.22-1.16l.83-1.57a4.05,4.05,0,0,0,.61.48,6.18,6.18,0,0,0,.93.48,8.18,8.18,0,0,0,1.15.37,5.34,5.34,0,0,0,1.28.16,3.07,3.07,0,0,0,1.66-.38,1.33,1.33,0,0,0,.37-1.84,2.07,2.07,0,0,0-.63-.51,5.21,5.21,0,0,0-1-.4c-.39-.12-.84-.24-1.34-.37s-1.07-.32-1.5-.48a4,4,0,0,1-1.07-.61,2.48,2.48,0,0,1-.64-.84,2.75,2.75,0,0,1-.22-1.17,3.44,3.44,0,0,1,.32-1.5,3.34,3.34,0,0,1,.89-1.11,3.88,3.88,0,0,1,1.33-.67,5.51,5.51,0,0,1,1.66-.23,6,6,0,0,1,2.16.37,7.19,7.19,0,0,1,1.74.93Z" style="fill:#fff"></path><path d="M398.13,295.59h1.59l4.56,11.56h-1.92L401.14,304h-4.46l-1.21,3.15h-1.93Zm2.65,7.06-1.86-5-1.92,5Z" style="fill:#fff"></path><path d="M405.71,307.15V295.59h1.83v9.94h6.2v1.62Z" style="fill:#fff"></path><path d="M423.14,305.53v1.62h-7.92V295.59H423v1.61h-6v3.29h5.16V302H417v3.53Z" style="fill:#fff"></path><rect x="377.11" y="265.62" width="3.77" height="5.06" style="fill:#134074"></rect><rect x="426.36" y="265.62" width="3.77" height="5.06" style="fill:#134074"></rect><rect x="442.72" y="270.68" width="2.43" height="45.57" style="fill:#134074"></rect><rect x="442.72" y="270.68" width="2.43" height="45.57" style="opacity:0.1"></rect></g><g id="freepik--Character--inject-80"><path d="M329.63,351.74l27.83,22.48c5.34,4.27,9.94,8.11,12.14,10.32l0,0c.83.83,1.31,1.42,1.33,1.71,0,0,0,0,0,.06-.19,2.45-33.07,46.12-34.73,47.25s-5-3.5-5.11-6.21,5-25.07,5-25.07L308.6,379.59Z" style="fill:#d3766a"></path><path d="M351.75,369.61l5.71,4.61c5.34,4.27,9.94,8.11,12.14,10.32l0,0a9.14,9.14,0,0,1,1.33,1.71s0,0,0,.06c-.19,2.45-33.07,46.12-34.73,47.25s-5-3.5-5.11-6.21,5-25.07,5-25.07l-5.86-4.6Z" style="fill:#ebebeb"></path><path d="M336.25,433.61c1.66-1.14,34.54-44.81,34.73-47.27.09-.93-6-6.09-13.52-12.11l-.24-.19L335.7,402l.48.35s-5.1,22.35-5,25.07S334.59,434.75,336.25,433.61Z" style="fill:#134074"></path><path d="M334.93,431.84c5.36-7.5,27.69-37.23,33.56-44.24.05-.05.09,0,0,0-5.15,7.55-27.72,37.1-33.48,44.29C334.93,432.08,334.82,432,334.93,431.84Z" style="fill:#263238"></path><path d="M334.49,404.75c1.64-3.3,4.75-6.51,8.48-7.17.14,0,.18.18.08.25a50.91,50.91,0,0,0-8.19,7.19A.23.23,0,0,1,334.49,404.75Z" style="fill:#263238"></path><path d="M334.17,407.79c1.64-3.3,4.75-6.51,8.48-7.17.15,0,.18.18.08.25a50.84,50.84,0,0,0-8.18,7.19A.24.24,0,0,1,334.17,407.79Z" style="fill:#263238"></path><path d="M333.86,410.83c1.64-3.3,4.75-6.51,8.48-7.17.14,0,.18.18.08.25a51.35,51.35,0,0,0-8.19,7.19A.23.23,0,0,1,333.86,410.83Z" style="fill:#263238"></path><path d="M314.59,325c2,9.73,42.34,48.55,42.34,48.55L328.79,406s-57.31-57.21-54.32-78.7c2.6-18.7,30.59-93.89,30.59-93.89h32.3S312.66,315.39,314.59,325Z" style="fill:#37474f"></path><path d="M325.59,398.27c3.73-4.66,2.6-3.38,6.39-8C333.83,388,346,373.2,348.14,371.4c0,0,.12,0,.09.08-1.41,2.38-13.87,17-15.77,19.21-3.88,4.54-2.81,3.19-6.74,7.69C325.65,398.46,325.52,398.35,325.59,398.27Z" style="fill:#263238"></path><path d="M309,321.75c.47-2.42,1-4.84,1.51-7.26q1.57-7.41,3.33-14.78,3.48-14.61,7.58-29.06c2.76-9.67,5.67-19.31,9-28.79.41-1.17.84-2.34,1.27-3.5,0-.09.17-.05.14,0-2.9,9.49-5.89,19-8.62,28.51s-5.21,19.06-7.58,28.66c-1.19,4.82-2.29,9.66-3.37,14.51q-.79,3.57-1.56,7.15a51.35,51.35,0,0,0-1.35,7.37,11.2,11.2,0,0,0,1.9,6.63c1.21,2,2.63,3.85,4,5.71,2.76,3.75,29.05,33,29.89,33.83.07.07,0,.16-.1.1-3.53-3.17-25.83-27.31-28.66-31-1.4-1.85-2.77-3.73-4.11-5.62a22.59,22.59,0,0,1-3.21-5.65A13.43,13.43,0,0,1,309,321.75Z" style="fill:#263238"></path><path d="M324.5,391.83s-7,33.94-7,34c-.1,6.83-.3,12.83-.69,15.92a.11.11,0,0,1,0,0,4.81,4.81,0,0,1-.53,2.1l0,0c-2.06,1.35-56.71,2.2-58.63,1.59s-.32-6.12,1.77-7.85,22.89-11.4,22.89-11.4l7.31-33.93Z" style="fill:#d3766a"></path><path d="M257.63,445.5c1.91.61,56.57-.24,58.62-1.58l.05-.05a4.67,4.67,0,0,0,.53-2.1.13.13,0,0,0,0-.06c.39-3.08.59-9.07.69-15.91l1.21-5.91H283.66l-1.37,6.35s-20.78,9.69-22.89,11.42S255.7,444.9,257.63,445.5Z" style="fill:#ebebeb"></path><path d="M257.63,445.5c1.92.62,56.57-.23,58.63-1.59.79-.5,1.13-8.47,1.27-18.11v-.3l-35.27.15,0,.6s-20.77,9.68-22.88,11.41S255.71,444.9,257.63,445.5Z" style="fill:#134074"></path><path d="M258.22,443.37c9.2-.37,46.38-1,55.51-.65.08,0,.08,0,0,.06-9.12.56-46.3.88-55.51.74C258,443.52,258,443.38,258.22,443.37Z" style="fill:#263238"></path><path d="M279.32,426.4c3.62-.73,8.06-.25,10.87,2.29.11.1,0,.26-.15.22a51,51,0,0,0-10.69-2.05A.23.23,0,0,1,279.32,426.4Z" style="fill:#263238"></path><path d="M276.73,428c3.62-.74,8.06-.25,10.87,2.29.11.1,0,.25-.15.22a50.58,50.58,0,0,0-10.7-2A.23.23,0,0,1,276.73,428Z" style="fill:#263238"></path><path d="M274.14,429.64c3.61-.74,8.06-.25,10.87,2.29.11.1,0,.25-.15.22a50.6,50.6,0,0,0-10.7-2.06A.23.23,0,0,1,274.14,429.64Z" style="fill:#263238"></path><path d="M308.18,233.4A130.87,130.87,0,0,1,311,249.52c.68,6.75,1.52,12.73,2.42,13.48s6.12,4.12,7.84,5.16c0,0-15.91,48.24-20,64.32C295.24,355.79,281,425.73,281,425.73h38s11.55-66.58,16.6-88.77c4.33-19,20.92-76.1,20.92-76.1a33.17,33.17,0,0,0-1.34-27.45S308.17,233.37,308.18,233.4Z" style="fill:#37474f"></path><path d="M282.36,418.33c6,0,4.25-.1,10.22-.07,2.92,0,22.12.15,24.85.64a.07.07,0,0,1,0,.13c-2.73.41-21.93-.06-24.85-.13-6-.15-4.25-.17-10.22-.39A.09.09,0,0,1,282.36,418.33Z" style="fill:#263238"></path><path d="M310.68,261.09a72.85,72.85,0,0,1,10.48,7,.13.13,0,0,1-.14.21c-3.55-2.22-7.19-4.39-10.62-6.81A.25.25,0,0,1,310.68,261.09Z" style="fill:#263238"></path><path d="M313.58,234.85c0-.13.27-.13.24,0a127.5,127.5,0,0,0-1.33,12.81c-.13,2-.23,13.07,3.29,12.8.59,0,1-.55,1.19-1.4a14.21,14.21,0,0,0,.06-3.39c0-2.33,0-4.65.19-7a62.26,62.26,0,0,1,2.13-12.79.11.11,0,0,1,.21,0,120.12,120.12,0,0,0-1.71,17.85c0,2.89.75,7.35-2.26,7.33s-3.91-7.44-4-9.44A65.67,65.67,0,0,1,313.58,234.85Z" style="fill:#263238"></path><path d="M315.64,260.76a17.29,17.29,0,0,1,.42,2.37,5.23,5.23,0,0,1,0,1.89.13.13,0,0,1-.24,0,6.51,6.51,0,0,1-.52-1.91c-.15-.74-.31-1.47-.44-2.21A.38.38,0,0,1,315.64,260.76Z" style="fill:#263238"></path><path d="M323.39,397.4c.1-.88.22-1.75.34-2.63.24-1.68.52-3.36.78-5,.52-3.38,1.1-6.74,1.7-10.11,1.19-6.71,2.57-13.39,4-20.05.82-3.76,1.77-7.48,2.78-11.2.07-.26.44-.13.39.12-.61,3.4-1.2,6.81-1.9,10.19s-1.38,6.76-2.05,10.14c-1.33,6.68-2.57,13.38-3.89,20.07-.37,1.88-.71,3.78-1.08,5.66-.18.95-.37,1.89-.58,2.82s-.49,1.86-.64,2.8c0,.09-.15.05-.14,0C323.27,399.23,323.29,398.31,323.39,397.4Z" style="fill:#263238"></path><path d="M297.2,346.93c1.26-6.31,3-12.53,4.68-18.72,3.45-12.47,7.52-24.75,11.57-37L317,280.56c.58-1.77,3.45-11.3,3.8-12.21a.08.08,0,0,1,.15,0c-.82,3.25-2,8-2.9,11.21s-2,6.33-2.94,9.5c-1.94,6.22-3.92,12.43-5.8,18.66-3.73,12.33-7.42,24.65-10.45,37.18-.84,3.5-1.69,7-2.46,10.53s-1.43,7.06-2.17,10.58c0,.1-.18.07-.17,0A192.57,192.57,0,0,1,297.2,346.93Z" style="fill:#263238"></path><path d="M320.81,379.9c2.09-12,4.6-24,7.37-35.87s5.9-23.81,9.32-35.59,7.21-23.45,11.28-35a144.54,144.54,0,0,0,5.16-16.66c1.25-5.61,1.89-11.69.58-17.36a28.56,28.56,0,0,0-1.3-4.22c0-.09.1-.17.14-.08,4.57,10.65,1.61,22.3-1.87,32.79-1.91,5.75-3.94,11.46-5.82,17.22s-3.78,11.85-5.54,17.81c-3.51,11.81-6.77,23.7-9.68,35.67s-5.51,24-7.8,36.13-4.22,24.35-6.18,36.56c-.25,1.59-.45,3.18-.66,4.78,0,.09-.15.08-.14,0C317.13,404,318.72,391.91,320.81,379.9Z" style="fill:#263238"></path><path d="M313.89,189.27c-7.81,6-35.42,24.14-44.77,21.08-6.14-2-26.09-18.43-28.86-21.59-2.14-2.45,13-20.32,15.53-18s18.85,15,21.39,15.67,29.75-8.53,38.54-9.62C330.88,175,318.1,186,313.89,189.27Z" style="fill:#d3766a"></path><path d="M242.84,191c-2.25-1.71-14.51-10.88-16.64-13.92s-7.62-12.25-5.46-14.11,4,.7,4,.7-1.7-4.26.65-5.94,5.05,2.41,5.05,2.41-1.43-4.5,1-6,4.49,3.06,4.49,3.06-1.5-4,1.06-4.44c3.07-.47,5,7.31,7.59,10.49.59.72,13,13.8,13,13.8Z" style="fill:#d3766a"></path><path d="M235.78,156.84c1.43,5.71,3,8,7.23,12,.08.08,0,.22-.11.15-4.46-3.55-6.89-6.09-7.4-12.07C235.48,156.6,235.71,156.57,235.78,156.84Z" style="fill:#263238"></path><path d="M230.33,159.72c2,5.81,3.73,8.27,7.81,12.79.06.06,0,.17-.11.11-4.38-4.1-6.74-6.69-8-12.75C230,159.59,230.24,159.46,230.33,159.72Z" style="fill:#263238"></path><path d="M225,163.93c2.34,5.48,4.12,8.26,8.64,12.14a.11.11,0,1,1-.13.17c-5-3.5-7.24-7-8.67-12.22C224.69,163.66,224.8,163.58,225,163.93Z" style="fill:#263238"></path><path d="M262.27,177.7s-1.38-7.25-2.69-10.3S249.2,154.78,247,156.62c-2.81,2.38,1.33,8.94,3.79,11.88,0,0-6.52,5.49-4.56,10.84S262.27,177.7,262.27,177.7Z" style="fill:#d3766a"></path><path d="M246.46,157.53c-1,4,2.47,7.68,4.63,10.71a.34.34,0,0,1-.16.54c-2.58,2.48-5.49,6.74-4.89,10.47a.09.09,0,0,1-.17,0c-1.18-3.91,1.33-8.33,4.33-10.87-2.27-3.08-5.58-6.9-3.78-10.9C246.43,157.49,246.47,157.5,246.46,157.53Z" style="fill:#263238"></path><path d="M263.12,173.56,248,198.3s16.33,12.17,25.48,13.66c11.11,1.81,40.45-19.8,44.9-23.56,7.29-6.16,9-11.36,4-12.56-1.94-.48-4.89-.34-8.92.59-4.21,1-29.41,8.39-36.26,8.67C273.35,185.26,263.12,173.56,263.12,173.56Z" style="fill:#134074"></path><path d="M263.12,173.56,248,198.3s16.33,12.17,25.48,13.66c11.11,1.81,40.45-19.8,44.9-23.56,7.29-6.16,9-11.36,4-12.56-1.94-.48-4.89-.34-8.92.59-4.21,1-29.41,8.39-36.26,8.67C273.35,185.26,263.12,173.56,263.12,173.56Z" style="opacity:0.2"></path><path d="M253.15,199.72c2.23-3.4,10.86-17.69,12.52-20.9.11-.22,0-.35-.15-.13-6.94,10.05-10.48,17.49-12.5,20.94C253,199.72,253.1,199.81,253.15,199.72Z" style="fill:#263238"></path><path d="M272.09,211.66a10.32,10.32,0,0,0,1.35.3c11.12,1.82,40.45-19.8,44.9-23.56,6.91-5.83,8.81-10.81,4.74-12.33C312.11,183.7,288.13,200.46,272.09,211.66Z" style="opacity:0.1"></path><path d="M304.29,235.3c1.21,1.17,52.95,6.56,53.21,6.21.68-.94-9-49.49-29.7-66.22-3.65-2.95-9.74-1.71-12.5.06-1.38.89-5.19,7.86-6.29,14.06S303.53,234.55,304.29,235.3Z" style="fill:#ebebeb"></path><path d="M326.44,174.08s-5.65,29.33-5.83,30.53.64,33.86.64,33.86l38.42,4.74s-4.34-16.21-4.57-17-8.37-27.7-17.12-39.76C329.94,175.37,326.44,174.08,326.44,174.08Z" style="fill:#134074"></path><path d="M326.44,174.08s-5.65,29.33-5.83,30.53.64,33.86.64,33.86l38.42,4.74s-4.34-16.21-4.57-17-8.37-27.7-17.12-39.76C329.94,175.37,326.44,174.08,326.44,174.08Z" style="opacity:0.2"></path><path d="M314.51,175.78s-3.88,26-4,27.67-3,33.3-3,33.3L302.73,235s2.65-20.61,3-22.39,2.52-21,3.35-24.54C310.35,182.38,314.51,175.78,314.51,175.78Z" style="fill:#134074"></path><path d="M314.51,175.78s-3.88,26-4,27.67-3,33.3-3,33.3L302.73,235s2.65-20.61,3-22.39,2.52-21,3.35-24.54C310.35,182.38,314.51,175.78,314.51,175.78Z" style="opacity:0.2"></path><path d="M283.37,239.37l0,.13,1.27-.15v-.13Zm3.66-3a9.16,9.16,0,0,1-1.28,0l.1.87a11,11,0,0,0,1.28,0Z" style="fill:#c7c7c7"></path><path d="M280.44,234.77l.59,5,2.36-.28,0-.13,1.28-.15v.13l2.68-.31-.21-1.77a11,11,0,0,1-1.28,0l.07.6-3.77.44-.29-2.47,3.77-.44.12,1a9.16,9.16,0,0,0,1.28,0l-.28-2.39Z" style="fill:#c7c7c7"></path><rect x="284.2" y="239.24" width="1.28" height="14.27" transform="translate(-26.81 34.94) rotate(-6.7)" style="fill:#c7c7c7"></rect><rect x="285.61" y="252.25" width="3.17" height="1.04" transform="translate(601.93 470.29) rotate(173.3)" style="fill:#c7c7c7"></rect><rect x="285.41" y="250.59" width="3.17" height="1.04" transform="translate(601.34 466.99) rotate(173.3)" style="fill:#c7c7c7"></rect><path d="M291.56,237.85l.06.11,1.11-.65-.07-.12Zm1.87-4.61a7.42,7.42,0,0,1-.94.92l.45.74c.33-.28.66-.57,1-.88Z" style="fill:#fff"></path><polygon points="291.56 237.85 291.62 237.96 298.87 250.1 299.97 249.45 299.97 249.44 299.44 248.56 299.11 248.01 298.58 247.12 292.73 237.31 292.66 237.19 291.56 237.85" style="fill:#fff"></polygon><rect x="298.93" y="248" width="3.17" height="1.04" transform="translate(685.9 308.07) rotate(149.19)" style="fill:#fff"></rect><rect x="298.07" y="246.56" width="3.17" height="1.04" transform="matrix(-0.86, 0.51, -0.51, -0.86, 683.57, 305.81)" style="fill:#fff"></rect><path d="M275.62,227.92a10.6,10.6,0,0,0,4.93,7.76l-.11-.91.23,0a9.79,9.79,0,1,1,12.76-1.5,7.42,7.42,0,0,1-.94.92,9.67,9.67,0,0,1-3.31,1.84l.44.75a10.59,10.59,0,0,0,3.32-1.85c.33-.28.66-.57,1-.88a10.64,10.64,0,1,0-18.28-6.1Zm7,7.87-.79.1.06.52a10.81,10.81,0,0,0,3.93.91,11,11,0,0,0,1.28,0l.3,0a9.09,9.09,0,0,0,.91-.15l-.46-.77-.55.08-.3,0a9.16,9.16,0,0,1-1.28,0A9.29,9.29,0,0,1,282.65,235.79Z" style="fill:#ebebeb"></path><path d="M287,234.85l.88,1.47.46.77,1.24,2.09,2-1.22-.06-.11,1.1-.66.07.12,2.3-1.38L293.9,234c-.3.31-.63.6-1,.88l.34.58-3.26,2-.4-.68-.44-.75-.43-.72,3.26-1.93.48.81a7.42,7.42,0,0,0,.94-.92l-1-1.64Z" style="fill:#fff"></path><path d="M334.74,182.69c15.28,17.54,32.31,46.95,24.66,53-7,5.53-30.28,0-45.95-6.51-3-1.23.92-25,4.3-24.37,6.23,1.2,17.61,5.3,18,5.42.86.25-4.56-12.79-9.54-25.43C320.66,170.71,326,172.66,334.74,182.69Z" style="fill:#d3766a"></path><path d="M322.22,205.9s-9.46-2.26-15.69-3.4c-3.47-.64-9.52-1.2-12.28-.5-4.14,1-20.77,8.06-19.16,12.13,1.47,3.68,15-4.16,15-4.16s-14.35,6.71-11.77,10.82S295,214,295,214s-14.58,7.22-11.26,11c2.52,2.88,15.84-6.26,15.84-6.26s-12.49,6.29-10,9.37c2.71,3.4,15.54-4.26,15.54-4.26,7.57,6.77,13.94,6.91,18.48,6.46C324.65,230.25,322.22,205.9,322.22,205.9Z" style="fill:#d3766a"></path><path d="M294.89,207.33c-1.71.73-3.45,1.45-5.1,2.33s-3.25,1.81-4.81,2.84a31.34,31.34,0,0,0-5.66,4.56c3.25-2.85,9.09-6.08,10.73-7s3.24-1.83,4.87-2.71C295,207.37,294.93,207.32,294.89,207.33Z" style="fill:#263238"></path><path d="M298.16,213.21c-2.15,1-4.32,2-6.42,3.07s-5,2.78-7,4c-.16.09-.08.36.08.27,2.06-1.17,5.07-2.73,7.14-3.88s4.11-2.38,6.21-3.44C298.22,213.24,298.19,213.19,298.16,213.21Z" style="fill:#263238"></path><path d="M301.88,217.74a53.31,53.31,0,0,0-9.46,5.46c-.15.1,0,.15.15.06,3.11-1.87,5.54-3.37,9.36-5.4C302,217.83,302,217.71,301.88,217.74Z" style="fill:#263238"></path><path d="M327.21,174.94c11.16,7,39.67,48,34.26,59.16S320,232.61,320,232.61l2.85-28.26s10.08,3.29,10.4,2.81-5.11-14.42-7.32-20.09S321.27,171.21,327.21,174.94Z" style="fill:#134074"></path><path d="M327.21,174.94c11.16,7,39.67,48,34.26,59.16S320,232.61,320,232.61l2.85-28.26s10.08,3.29,10.4,2.81-5.11-14.42-7.32-20.09S321.27,171.21,327.21,174.94Z" style="opacity:0.2"></path><path d="M324.59,230.93c.7-4,3-20.55,3.24-24.15,0-.25-.14-.32-.19-.06a221.11,221.11,0,0,0-3.21,24.17C324.42,231,324.57,231,324.59,230.93Z" style="fill:#263238"></path><path d="M322.65,204a21.89,21.89,0,0,1,3.25.85c1,.29,1.92.57,2.87.87q3.12,1,6.19,2.07t6.13,2.22c2,.76,4,1.64,6,2.41a.08.08,0,1,1-.06.14c-2.06-.73-4.16-1.32-6.23-2l-6.09-2-6.09-2-3-1c-1-.33-1.91-.68-2.86-1.07a15.56,15.56,0,0,1-.15,1.56C322.46,205.92,322.41,203.94,322.65,204Z" style="fill:#263238"></path><path d="M326.94,193.53c.58.75,1.14,1.5,1.68,2.28l.29.45-.44-1.2a40.89,40.89,0,0,1-1.47-4.24.06.06,0,0,1,.12,0,41.93,41.93,0,0,1,1.86,4.3c.59,1.4,1.18,2.81,1.74,4.22s1.13,2.84,1.66,4.26a31.38,31.38,0,0,1,1.41,4.27.08.08,0,0,1-.14,0,31.52,31.52,0,0,1-1.93-4.27c-.57-1.41-1.11-2.84-1.66-4.26-.23-.59-.45-1.19-.67-1.79l-.29-.41c-.27-.37-.52-.75-.77-1.14-.5-.81-1-1.63-1.44-2.45C326.88,193.53,326.92,193.5,326.94,193.53Z" style="fill:#263238"></path><path d="M319.93,231.94c0-.2.13-.24.16,0s0,.34.05.46c1.23.34,5.72,1.75,6.82,2.09,2.3.7,4.63,1.32,7,1.86s4.72,1,7.1,1.41a87,87,0,0,0,13.85.48c.1,0,.09.13,0,.15a53.63,53.63,0,0,1-14-.05c-2.38-.29-4.75-.71-7.09-1.22s-4.76-1.16-7.09-1.89c-1.17-.36-2.32-.76-3.47-1.18a17,17,0,0,1-3.24-1.34.23.23,0,0,1-.11-.23C319.89,232.29,319.91,232.12,319.93,231.94Z" style="fill:#263238"></path><path d="M316.94,183.58c3,.65,8-4,10-7.68.14-.26-1.08-10.32-1.12-12.34,0-.41-12.62,3.29-12.62,3.29a32.39,32.39,0,0,1,1.35,7.73C314.51,174.88,314.06,182.94,316.94,183.58Z" style="fill:#d3766a"></path><path d="M313.15,166.85h0c0,.06.09.3.2.7.19.68.47,1.77.7,3a22.89,22.89,0,0,1,.45,4,2.61,2.61,0,0,1,0,.28v0c0,.17,0,.39,0,.65a8.1,8.1,0,0,0,1.23,0c6.9-.27,9.08-8.78,9.67-12l-.22,0c-.33.06-.77.16-1.3.29l-.4.1c-.85.21-1.85.47-2.89.75l-1,.29-2.21.61c-.3.1-.59.18-.88.26l-.89.25-.41.12-.2.06-1,.3-.5.14-.22.07h0Z" style="fill:#263238"></path><path d="M311.55,143.82s-4.23,1.4-5.28,5.51-.43,8.56-.09,8.8S311.55,143.82,311.55,143.82Z" style="fill:#a6a6a6"></path><path d="M327.58,150.19c1.21,4.54-1.64,17.42-4.94,20.19-4.79,4-12.39,4.14-15.75-1.55-3.26-5.52.75-22.24,4.42-24.73C316.7,140.42,325.8,143.49,327.58,150.19Z" style="fill:#d3766a"></path><path d="M317.08,157.55s.05.06,0,.09c-.24.86-.37,1.88.34,2.36,0,0,0,.06,0,.05C316.52,159.68,316.71,158.32,317.08,157.55Z" style="fill:#263238"></path><path d="M318.07,156.84c1.41.24.84,3-.47,2.83S316.88,156.64,318.07,156.84Z" style="fill:#263238"></path><path d="M311.73,156.52s-.08,0-.08.06c-.15.88-.47,1.86-1.32,2,0,0,0,.05,0,.05C311.32,158.68,311.73,157.37,311.73,156.52Z" style="fill:#263238"></path><path d="M311.14,155.45c-1.38-.39-2.06,2.39-.79,2.76S312.29,155.78,311.14,155.45Z" style="fill:#263238"></path><path d="M319.35,155.74a10.34,10.34,0,0,1-1.07-.49,2,2,0,0,1-1-.71.61.61,0,0,1,.17-.72,1.5,1.5,0,0,1,1.52,0,2.17,2.17,0,0,1,1.18,1.07A.64.64,0,0,1,319.35,155.74Z" style="fill:#263238"></path><path d="M310.43,153.69a11.66,11.66,0,0,0,1.18-.06,1.93,1.93,0,0,0,1.18-.29.61.61,0,0,0,.12-.73,1.51,1.51,0,0,0-1.41-.58,2.23,2.23,0,0,0-1.5.55A.65.65,0,0,0,310.43,153.69Z" style="fill:#263238"></path><path d="M315.82,165.57c-.25.16-.51.4-.83.36a2.41,2.41,0,0,1-.89-.41s-.06,0-.05,0a1.2,1.2,0,0,0,1,.7,1,1,0,0,0,.84-.63C315.92,165.57,315.86,165.54,315.82,165.57Z" style="fill:#263238"></path><path d="M315.44,162.77a3,3,0,0,1-2.25.91,3.57,3.57,0,0,1-1.07-.17.66.66,0,0,1-.2-.06l-.19-.07a.21.21,0,0,1-.13-.23h0a.26.26,0,0,1,0-.08h0l0-.08c.11-.67.39-1.68.39-1.68-.27.08-1.64.38-1.54,0a44.88,44.88,0,0,1,3-8.74c0-.09.18,0,.15,0-.63,2.79-1.74,5.44-2.42,8.22a5.67,5.67,0,0,1,1.49-.14c.09.05-.57,1.94-.6,2.25v0a4.24,4.24,0,0,0,3.27-.32C315.45,162.64,315.51,162.71,315.44,162.77Z" style="fill:#263238"></path><path d="M312.58,163.26a3.6,3.6,0,0,0,1.19,1.38,1.59,1.59,0,0,0,1,.25c.73,0,.88-.67.86-1.24a3.8,3.8,0,0,0-.14-.9A4.67,4.67,0,0,1,312.58,163.26Z" style="fill:#263238"></path><path d="M313.77,164.64a1.59,1.59,0,0,0,1,.25c.73,0,.88-.67.86-1.24A1.66,1.66,0,0,0,313.77,164.64Z" style="fill:#ff9abb"></path><g style="opacity:0.2"><path d="M316.21,151.13a10.35,10.35,0,0,1-1.48-.22c-.5-.12-1-.34-1.45-.46a8.14,8.14,0,0,0-2.87,0c-.08,0-.08.06,0,.05a7.24,7.24,0,0,1,3,.25,9.1,9.1,0,0,0,2.41.57,8.92,8.92,0,0,1,5.26,1.74s0,0,0,0A8.89,8.89,0,0,0,316.21,151.13Z"></path><path d="M316.53,149.83a11.15,11.15,0,0,1-1.41-.21c-.47-.12-.9-.33-1.37-.44a7.76,7.76,0,0,0-2.72,0c-.08,0-.08.06,0,.05a6.81,6.81,0,0,1,2.84.23,8.61,8.61,0,0,0,2.29.55,8.44,8.44,0,0,1,5,1.65h0A8.42,8.42,0,0,0,316.53,149.83Z"></path></g><path d="M326,162c-1.6.09-2.2-4.82-2.25-6.67-.05-1.62.66-6.56.67-6.91s-7.56,2.64-11,.6-5.15-6-4.8-7.62,6-4.41,10.08-3.6,8.27,7.29,8.27,7.29a18.93,18.93,0,0,1-1.19-2.84,4.58,4.58,0,0,1,2.47,3.5s.06-2.46.27-2.45,1.74,2.51.9,3.91c0,0,1.84,2.61,1.5,4.89S327.84,161.85,326,162Z" style="fill:#a6a6a6"></path><path d="M310.86,147.52a12.94,12.94,0,0,0,3.23,2.16,8.71,8.71,0,0,0,4.21.36,13.33,13.33,0,0,0,4.08-1.21c1.13-.54,2.2-1.26,3.37-1.7.29-.11.49.32.28.51A13.9,13.9,0,0,1,318,151a8,8,0,0,1-7.13-3.41S310.84,147.51,310.86,147.52Z" style="fill:#a6a6a6"></path><path d="M324.3,160.64s3.17-4,5-2.87-.7,7.1-3,7.8a2.26,2.26,0,0,1-3-1.39Z" style="fill:#d3766a"></path><path d="M328.54,159.46a0,0,0,0,1,0,.06,5.75,5.75,0,0,0-3.18,3.42,1.25,1.25,0,0,1,1.9-.24s0,.09,0,.08a1.4,1.4,0,0,0-1.56.4,6.48,6.48,0,0,0-.81,1.2c-.08.14-.33.05-.27-.11l0,0C324.67,162.24,326.38,159.54,328.54,159.46Z" style="fill:#263238"></path><path d="M314.44,175.64l3,7.54,9.37-9.54,2.65,3.06s-9.16,15.16-9.21,14.47l-3.11-6.49-4.49,4.52.37-11.35Z" style="fill:#ebebeb"></path><path d="M312.55,183.58c.12-1.87.19-3.76.4-5.63,0-.06.11-.09.13,0,.37,1.8-.14,9-.13,10.67l0,0c.19-.19,4.16-4,4.2-3.91.67,1,2.95,5.76,3.11,6.19,1.45-2.41,7-11.16,8.71-13.44a.07.07,0,0,1,.12.07c-1.28,2.54-8.63,14.33-8.74,14.29a72.84,72.84,0,0,1-3.25-6.87c-.67.83-4.68,5.1-4.69,4.82A55,55,0,0,1,312.55,183.58Z" style="fill:#263238"></path></g></svg>