<svg xmlns="http://www.w3.org/2000/svg" viewBox="0 0 124.75 29.66"><defs><style>.cls-1{fill:#0b2545;}</style></defs><title>Recurso 3</title><g id="Capa_2" data-name="Capa 2"><g id="Capa_1-2" data-name="Capa 1"><path class="cls-1" d="M8.21,29l.07-13.76.08-.09c.43,0,10.07,0,11.83,0l0,0a.07.07,0,0,1,0,0q0,4.21,0,8.42a.31.31,0,0,1,0,.07H17.69l0,0a.09.09,0,0,1,0,0q0-2.93,0-5.87v0a.11.11,0,0,0,0,0l0,0-6.85,0,0,0a.5.5,0,0,0,0,.07l0,8.78s.08,0,.13,0l15.51.07h.1c0-.4.09-9,.09-13.71l-.2-.2c-.07-.06-.16-.08-.23-.15s-.12-.19-.24-.19a2.12,2.12,0,0,1-.2-.2c-.06-.08-.16-.08-.23-.15s-.11-.16-.22-.16a1.71,1.71,0,0,1-.18-.18c-.06-.08-.15-.1-.22-.15a1.15,1.15,0,0,1-.18-.18c-.06-.07-.17-.07-.23-.15s-.09-.14-.19-.13a1.72,1.72,0,0,0-.32-.28c-.13-.07-.19-.22-.32-.27a1.13,1.13,0,0,1-.3-.24c-.15,0-.2-.15-.3-.23s-.19-.08-.26-.17a.41.41,0,0,0-.21-.18c-.11,0-.15-.17-.24-.2a.5.5,0,0,1-.24-.19c-.07-.09-.18-.1-.25-.18L21.58,9h-.07l-.28-.28c-.13,0-.18-.16-.28-.2s-.24-.22-.38-.31H20.5l-.27-.28c-.15,0-.2-.16-.31-.23h-.06l-.28-.28h-.07l-.31-.29c-.15,0-.17-.19-.31-.22h0a2,2,0,0,0-.33-.28c-.12-.07-.18-.2-.29-.25a1.29,1.29,0,0,1-.32-.26c-.16,0-.21-.18-.33-.25a1.2,1.2,0,0,1-.22-.15.66.66,0,0,0-.21-.18c-.08,0-.13-.14-.21-.18s-.23-.21-.35-.28a2.1,2.1,0,0,1-.35-.29c-.07-.06-.17-.07-.22-.15s-.13-.09-.19-.14-.16-.2-.26-.24A1,1,0,0,1,15.3,4l-.09-.1c-.16,0-.2-.17-.31-.22a.81.81,0,0,0-.32.19.44.44,0,0,1-.18.16.42.42,0,0,0-.17.12L14,4.31c-.14,0-.17.17-.28.2s-.18.14-.27.21l-.25.18c-.07.06-.14.13-.2.2s-.16.13-.25.18a1,1,0,0,0-.23.15c-.07.07-.12.19-.25.18l-.23.23c-.08.07-.19.08-.25.18s-.16.08-.23.15l-.21.21c-.18.06-.26.21-.38.3s-.23.19-.35.28-.21.22-.37.23a1.72,1.72,0,0,1-.32.27,1.42,1.42,0,0,0-.29.25c-.05,0-.13,0-.18.1A.68.68,0,0,1,9.35,8s-.06,0-.11,0l0-4.85,0,0h0l-3.28,0c-.07.06,0,.13,0,.2,0,2.46,0,4.92,0,7.4-.1.07-.16.21-.31.25s-.15.21-.31.22,0,.05-.08.07-.13.2-.27.21a2.28,2.28,0,0,1-.26.24c-.07.05-.17.07-.22.16s-.16.08-.23.15a1.13,1.13,0,0,1-.21.2,1.23,1.23,0,0,0-.22.15.66.66,0,0,1-.21.18c-.08,0-.14.12-.21.18s-.15.05-.21.15L3,29l0,0H.54l0,0a.07.07,0,0,1,0,0q0-8.66.08-17.3l.35-.34H1L1.26,11c.13,0,.18-.16.28-.2s.25-.21.39-.31H2l.27-.27c.15,0,.2-.15.3-.23s.15-.07.2-.13a2,2,0,0,1,.3-.23c.09-.08.17-.17.26-.25l0-8.85s.08,0,.13,0l8.1,0h.1l0,0a.11.11,0,0,1,0,0v2.2l.09,0c.12-.06.16-.22.31-.22a1.84,1.84,0,0,1,.26-.25,1.56,1.56,0,0,0,.22-.15.62.62,0,0,1,.22-.17c.08,0,.13-.15.21-.18s.22-.22.35-.28.29-.3.5-.37.12-.11.18-.17,0,0,.06,0,.21-.22.36-.29A1.48,1.48,0,0,0,14.79.5h.11c.09,0,.11.16.23.15s.16.14.23.22.17.07.23.15a2.05,2.05,0,0,0,.19.2c.14,0,.17.14.26.18a.63.63,0,0,1,.27.21c.07.09.18.1.25.18l.23.23h.07a1.41,1.41,0,0,0,.32.26c.11.05.16.2.29.25s.2.19.32.28h.06c.11.07.16.21.3.23l.28.28h.07c.09.09.17.22.28.27s.17.17.27.21.22.22.35.28.29.3.49.37.12.12.17.17h.08l.15.15c.05,0,.1.11.16.13s.12.1.19.15.1.12.16.13.11.08.17.12.08.13.16.1a1.82,1.82,0,0,0,.33.28c.13.07.19.22.32.27s.24.22.39.31.13.07.18.13.17.08.23.15a1.32,1.32,0,0,0,.18.18c.07.06.17.07.22.15a1.61,1.61,0,0,0,.18.18h.06c.11.07.16.21.31.23l.28.28h.07l.28.28c.13,0,.18.16.28.2s.24.22.38.31h.06c.09.09.17.22.28.27s.17.17.27.21.24.22.38.31h.07l.27.28c.13,0,.18.16.28.2s.25.21.38.31h.09a2.49,2.49,0,0,1,.17.2c.06.08.16.09.23.15s.1.17.21.16a1.77,1.77,0,0,0,.32.28c.13.07.19.22.32.27a1.13,1.13,0,0,1,.3.24c.15,0,.2.15.3.23s.13,0,.18.1l.13.14L29,29.12l0,0h0l-20.7-.1Z"/><path class="cls-1" d="M29.06,29.66h-.14L8,29.55l-.34-.33,0-.2.07-14L8,14.78l.28-.1c.52,0,10.27,0,11.88,0h.2l.31.4v.16l-.08,8.64-.12.33-.36,0H17.48l-.32-.42,0-5.61-5.92,0,0,7.92L26,26.19c0-1.83.08-8.68.07-13l0,0a.75.75,0,0,1-.27-.2h-.07l-.15-.14-.2-.2a.81.81,0,0,1-.23-.16H25l-.16-.16a1.83,1.83,0,0,1-.22-.23s-.08,0-.13-.06a1.55,1.55,0,0,1-.21-.2.79.79,0,0,1-.21-.14h0l-.29-.27-.1-.09a1,1,0,0,1-.3-.25,1.27,1.27,0,0,1-.33-.25.87.87,0,0,1-.36-.29,1.05,1.05,0,0,1-.34-.27s0,0,0,0A.75.75,0,0,1,22,10a1,1,0,0,1-.39-.33s-.13,0-.23-.14l-.06-.06h0l-.22-.15-.2-.2a.82.82,0,0,1-.26-.2,1.17,1.17,0,0,1-.32-.25h0L20,8.32a.82.82,0,0,1-.25-.18h0L19,7.55l0,0-.53-.48L18.3,7A1,1,0,0,1,18,6.78a1.72,1.72,0,0,1-.36-.28.92.92,0,0,1-.32-.26A2.27,2.27,0,0,1,17,6L17,5.94a.86.86,0,0,1-.26-.21,1,1,0,0,1-.3-.23A3.17,3.17,0,0,1,16,5.15a1.09,1.09,0,0,1-.32-.24l-.08,0a1,1,0,0,1-.24-.22A1.32,1.32,0,0,1,15,4.41l-.07-.07-.08,0a.91.91,0,0,1-.27.18l-.36.29a.7.7,0,0,1-.32.22.46.46,0,0,1-.12.13l-.12.09-.11.08-.1.1-.16.16-.09,0a.73.73,0,0,1-.2.16l-.11.07a.83.83,0,0,1-.35.28l-.14.14a.87.87,0,0,1-.22.14.71.71,0,0,1-.28.21l-.14.14-.23.16-.22.22-.17.1a1.17,1.17,0,0,1-.21.2l-.15.09a.83.83,0,0,1-.25.18h0a1.39,1.39,0,0,1-.35.27L10,8.08l-.18.11a1.27,1.27,0,0,1-.18.16l-.17.13-.75-.07V7.95l0-4.39H6.38l0,7.37-.23.15a1,1,0,0,1-.34.28.81.81,0,0,1-.29.22l0,0a.77.77,0,0,1-.31.25,1.72,1.72,0,0,1-.24.21l-.12.07a.7.7,0,0,1-.29.22,1.17,1.17,0,0,1-.27.23l-.14.09a1,1,0,0,1-.38.28s0,.08-.1.12h0L3.51,29.25l-.33.25-.21,0H.33L0,29.11V29L.08,11.44l1-.9a.72.72,0,0,1,.27-.18,1.75,1.75,0,0,1,.27-.25l.48-.36.15-.14.16-.12h0a1.21,1.21,0,0,1,.23-.18l.14-.12,0-8.8L3,.28A.57.57,0,0,1,3.5,0l8.42.07.15.15-.37.34.48-.16,0,.1V2l.38.2-.34-.36a1.08,1.08,0,0,1,.3-.24.75.75,0,0,1,.29-.21.85.85,0,0,1,.34-.27l.08-.08a1.24,1.24,0,0,1,.36-.27l.1-.11a.55.55,0,0,1,.18-.1,1.3,1.3,0,0,1,.35-.27l.07-.08.12-.12L14.6,0h.31a.84.84,0,0,1,.34.13h.06l.17.17.22.21a.73.73,0,0,1,.3.23l0,.05a.75.75,0,0,1,.27.2,1.13,1.13,0,0,1,.4.34s.12,0,.21.13l.37.3.1.09a.89.89,0,0,1,.3.24,1.15,1.15,0,0,1,.35.29h0l.08,0a.9.9,0,0,1,.19.16h.08l.26.27.22.15.11.12a2.07,2.07,0,0,1,.31.26,1,1,0,0,1,.34.27,1.54,1.54,0,0,1,.38.3L20.1,4a.66.66,0,0,1,.26.18l.3.25v0a.76.76,0,0,1,.34.24l.08.08a.69.69,0,0,1,.17.11h0l.34.31.11.1a1,1,0,0,1,.3.25,1.35,1.35,0,0,1,.37.28h0a.71.71,0,0,1,.34.24.75.75,0,0,1,.26.2l.11.11a.78.78,0,0,1,.32.25l.11.06a1,1,0,0,1,.18.16h.08L24,7.1l.22.15.19.2a.81.81,0,0,1,.26.2A1.14,1.14,0,0,1,25,7.9h0l.21.15.11.12a2.11,2.11,0,0,1,.31.26,1.11,1.11,0,0,1,.36.27h0l.4.34a.83.83,0,0,1,.26.2,1.22,1.22,0,0,1,.35.27h0l.22.15.15.17a.8.8,0,0,1,.22.14h0l.28.26.1.1a1,1,0,0,1,.3.25,1.22,1.22,0,0,1,.33.25.86.86,0,0,1,.37.3.45.45,0,0,1,.23.16l.26.26L29.5,29.33ZM8.71,28.56l19.79.1L28.59,12l-.15-.1-.1-.11h0l-.13-.11L28,11.56a1.28,1.28,0,0,1-.39-.31,1.93,1.93,0,0,1-.36-.3.76.76,0,0,1-.31-.25.57.57,0,0,1-.29-.22h-.06l-.11-.09a1.72,1.72,0,0,1-.18-.17l-.08-.08A.71.71,0,0,1,26,10h-.07l-.4-.35a1.55,1.55,0,0,1-.22-.2A1.6,1.6,0,0,1,25,9.13a1.19,1.19,0,0,1-.35-.29l-.08,0a1.54,1.54,0,0,1-.21-.19A1.36,1.36,0,0,1,24,8.37H24l-.26-.27L23.47,8l-.19-.19A.81.81,0,0,1,23,7.59h0l-.21-.15a1.63,1.63,0,0,1-.23-.24s-.06,0-.13-.06a1.69,1.69,0,0,1-.2-.19A.78.78,0,0,1,22,6.77l-.08,0a1.36,1.36,0,0,1-.25-.21,1.38,1.38,0,0,1-.4-.33,1.94,1.94,0,0,1-.35-.29.65.65,0,0,1-.27-.21l0,0a.74.74,0,0,1-.26-.19l-.1-.1A.84.84,0,0,1,20,5.17l0,0h0l-.3-.24a1.29,1.29,0,0,1-.34-.26l-.09-.08a.94.94,0,0,1-.32-.25,1.23,1.23,0,0,1-.31-.23,1.12,1.12,0,0,1-.32-.26l-.37-.31a.84.84,0,0,1-.28-.21l-.12-.06A1.4,1.4,0,0,1,17.3,3a1.28,1.28,0,0,1-.36-.3,1.28,1.28,0,0,1-.28-.21h0l-.22-.15-.23-.24a.63.63,0,0,1-.29-.23,1.16,1.16,0,0,1-.27-.19h-.07l-.14-.15-.18-.18A.73.73,0,0,1,15,1.2l-.09-.09h0a1,1,0,0,1-.19.13,1.85,1.85,0,0,1-.3.27l-.09.06a.67.67,0,0,1-.26.16L14,1.79a1.24,1.24,0,0,1-.39.28.84.84,0,0,1-.29.25.75.75,0,0,1-.31.22,1.05,1.05,0,0,1-.28.24.68.68,0,0,0-.14.12l-.23.23h-.07a.83.83,0,0,1-.22.17l-.19.1-.54-.18-.09-.39V1.06L3.87,1l0,8.6-.15.15L3.4,10l-.18.13a1.08,1.08,0,0,1-.39.31.88.88,0,0,1-.28.21L2.22,11h-.1a1.27,1.27,0,0,1-.34.26.85.85,0,0,1-.26.2l-.45.39L1,28.52H2.52l.08-15.85.07-.11A.76.76,0,0,1,3,12.24.79.79,0,0,1,3.34,12a1.24,1.24,0,0,1,.33-.27l.07-.07A1,1,0,0,1,4,11.45a.84.84,0,0,1,.28-.21.63.63,0,0,0,.13-.11l.29-.22.12-.11a.37.37,0,0,1,.2-.14.75.75,0,0,1,.29-.21l0-7.19a.61.61,0,0,1,.23-.59l.14-.1,3.78.1.22.24,0,.21,0,3.9.1-.09.29-.23a.81.81,0,0,1,.27-.19.93.93,0,0,1,.34-.27,1.28,1.28,0,0,1,.36-.28l.12-.12a.72.72,0,0,1,.24-.17.84.84,0,0,1,.28-.2l.36-.35h.07l0,0a1.42,1.42,0,0,1,.34-.23.41.41,0,0,1,.23-.19l.14-.13.18-.13.09-.06a1.17,1.17,0,0,1,.32-.25.77.77,0,0,1,.27-.21l.11-.11a.85.85,0,0,1,.27-.19,1.12,1.12,0,0,1,.46-.33l.2-.08.28.05a.76.76,0,0,1,.25.19h.08l.14.14L15.3,4l.41-.3a1.27,1.27,0,0,1,.38.31,1.19,1.19,0,0,1,.3.23.81.81,0,0,1,.19.13,1.8,1.8,0,0,0,.26.23,1.22,1.22,0,0,1,.25.2,1.32,1.32,0,0,1,.32.25.92.92,0,0,1,.28.23.55.55,0,0,0,.13.09,1,1,0,0,1,.26.22h.07l.12.11a1.12,1.12,0,0,0,.2.17,1,1,0,0,1,.3.24,2.11,2.11,0,0,1,.36.3h0a.72.72,0,0,1,.24.18h0l.78.64a.9.9,0,0,1,.2.17h.08l.4.35a1.52,1.52,0,0,1,.21.19,1.38,1.38,0,0,1,.32.24h.06l.26.26.22.15.24.25a.5.5,0,0,1,.28.21.84.84,0,0,1,.32.24.89.89,0,0,1,.35.3.56.56,0,0,1,.21.13l.11.11h.05l.12.1.12.11a1.31,1.31,0,0,1,.39.31,1.88,1.88,0,0,1,.36.3.74.74,0,0,1,.29.22.74.74,0,0,1,.26.2l.1.1a.82.82,0,0,1,.32.25l0,0a.78.78,0,0,1,.32.25.58.58,0,0,1,.28.21l0,.05a.82.82,0,0,1,.36.29.83.83,0,0,1,.2.13l.17.17.14.14.06.26c0,4.48,0,13.31-.09,13.76l0,.42-.42,0h-.14l-15.51-.07a.6.6,0,0,1-.54-.26l-.08-.13.08-9.26.3-.26h.2l7.09,0,.3.46v.13l0,5.44h1.52l0-7.56c-2.28,0-9.21-.06-10.95,0Zm2.11-2.44h0ZM25.3,12.54h0ZM4.83,12h0Zm.85-.66h0Zm16.73-1.14h0Zm4.23-1h0ZM9.29,8h0ZM12,6.5h0Zm.28-.23h0Zm8.46-.58h0Zm-7.56-.12L13,5.6A.24.24,0,0,0,13.16,5.57Zm7.19-.18h0Zm-.61-.47h0ZM15.6,4.85h0Zm-1.42-.06-.14,0A.34.34,0,0,0,14.18,4.78Zm2.26-.47h0Zm-2.19-.77h0ZM3.5,1h0Z"/><path class="cls-1" d="M39.55,6.64l2.44,0h3.1Q45,8,44.83,10.45t-.17,3.7q-1.08.2-1.78.29t-1.7.16q-1,.07-1.77.06a14.44,14.44,0,0,1-2.5-.23,8.07,8.07,0,0,1-2.19-.7,4.63,4.63,0,0,1-1.61-1.31,6,6,0,0,1-1-1.95,7.73,7.73,0,0,1-.34-2.32,7.44,7.44,0,0,1,1-3.67,6.86,6.86,0,0,1,2.73-2.67,9.32,9.32,0,0,1,4.58-1,22.43,22.43,0,0,1,4.53.54q0,1.42.11,3.17l-1.09-.36a9.75,9.75,0,0,0-1-.23q-.56-.11-1.06-.16t-.89-.05a6.07,6.07,0,0,0-1.95.3A4.1,4.1,0,0,0,37.17,5a4,4,0,0,0-1,1.52,5.37,5.37,0,0,0-.34,1.87,4.12,4.12,0,0,0,.37,1.79,2.53,2.53,0,0,0,1.18,1.2,4,4,0,0,0,1.81.42A7.38,7.38,0,0,0,41,11.54l.12-2.12-.72,0h-1l.07-1.2c0-.13,0-.32,0-.56S39.55,7.06,39.55,6.64Z"/><path class="cls-1" d="M46,14.44q.25-2.52.36-4.21t.24-4.51Q46.7,2.9,46.7,2V1.12l5.34,0h5.09l0,.32c0,.08,0,.36-.05.85L57,3.4q0,.34,0,.69-1.8-.09-3-.09H52.13L50.66,4l-.12,2.24q1.1,0,2.57,0l2.79-.06q-.1,1.25-.19,3l-2.49,0q-1.29,0-2.89.05l-.12,2.37h1.07l2,0,1.93,0,1.44-.07q-.12,1.44-.2,3l-5,0H46Z"/><path class="cls-1" d="M60.49,14.51Q61,9.77,61.1,4.07l-4,.09.05-1.08q0-.87.07-1.9l6.19,0h5.77l-.06,1q0,.77-.06,1.27c0,.33,0,.59,0,.76q-2-.12-3.3-.12h-.65Q65,5.81,64.87,7.27q-.11,2.09-.18,4.06t-.07,3.19l-2,0Z"/><path class="cls-1" d="M75.52,14.58q.49-4.74.61-10.44l-4,.09.05-1.08c0-.58,0-1.21.07-1.9l6.19,0h5.77l-.06,1q0,.77-.06,1.27c0,.33,0,.59,0,.76q-2-.12-3.3-.12h-.65Q80,5.88,79.9,7.34q-.11,2.09-.18,4.06t-.07,3.19l-2,0Z"/><path class="cls-1" d="M83.91,14.62l.39-5.32.19-3.88.06-1.73q0-.75,0-1.44V1.3l2.2,0h2q-.23,2.8-.31,4.94l5.09,0q.05-.8.1-2.16t.05-1.86q0-.26,0-.92l2.21,0h2q-.36,5-.46,7.46t-.12,5.86l-2,0H93q.25-2.32.34-5.4l-5.09,0-.18,5.4-2.17,0Z"/><path class="cls-1" d="M96.91,14.68l.78-1.4,4.88-9.48.52-1.06.63-1.34,2.4,0h2.44l1.34,4.07,2.74,7.84.54,1.43-2,0h-2.31q-.4-1.61-1.17-3.79l-4.71,0q-.82,1.71-1.7,3.78l-2.13,0Zm7.27-6.59h2.9Q106,4.66,105.92,4.31q-.62,1.43-1.06,2.34Z"/><path class="cls-1" d="M116.05,14.77q.49-4.74.61-10.44l-4,.09.05-1.08q0-.87.06-1.9l6.19,0h5.77l-.06,1q0,.77-.06,1.27t0,.76q-2-.12-3.3-.12h-.65q-.15,1.72-.23,3.18-.11,2.09-.18,4.06t-.07,3.19l-2,0Z"/><path class="cls-1" d="M35.8,29l.39-5.32.19-3.88L36.43,18q0-.75,0-1.44v-.94l2.2,0h2q-.24,2.8-.31,4.94l5.09,0q0-.8.1-2.16t.05-1.86q0-.26,0-.92l2.21,0h2q-.36,5-.46,7.46T49.14,29l-2,0H44.91q.24-2.32.34-5.4l-5.09,0L40,29l-2.17,0Z"/><path class="cls-1" d="M58.26,15.49a9.87,9.87,0,0,1,2.88.43,6.39,6.39,0,0,1,2.41,1.35,6,6,0,0,1,1.54,2.13,7,7,0,0,1,.5,2.76,7.82,7.82,0,0,1-.58,3,6.31,6.31,0,0,1-1.64,2.32,6.58,6.58,0,0,1-2.55,1.39,10.63,10.63,0,0,1-3.08.43,10.5,10.5,0,0,1-3-.45,6.45,6.45,0,0,1-2.51-1.42,5.57,5.57,0,0,1-1.51-2.17,7.44,7.44,0,0,1-.44-2.65,7.27,7.27,0,0,1,1-3.75,6.41,6.41,0,0,1,2.83-2.51A9.48,9.48,0,0,1,58.26,15.49Zm-.18,2.94a3.56,3.56,0,0,0-1.95.54,3.61,3.61,0,0,0-1.34,1.53,4.82,4.82,0,0,0-.48,2.1,4.2,4.2,0,0,0,.42,1.89A3.06,3.06,0,0,0,56,25.84a3.74,3.74,0,0,0,1.84.49,3.52,3.52,0,0,0,1.91-.53,3.46,3.46,0,0,0,1.33-1.52,4.84,4.84,0,0,0,.46-2.05,4.42,4.42,0,0,0-.41-1.93,3.12,3.12,0,0,0-1.23-1.38A3.49,3.49,0,0,0,58.08,18.43Z"/><path class="cls-1" d="M65.89,29.1l.24-2,.61-6.84L67,15.79l2.71,0h2.5q.12.84.2,1.27t.41,1.7q.32,1.26.52,2.19T74,24.13q.42-1.53.76-2.63t.85-2.5q.51-1.4.65-1.84t.38-1.33l2.75,0H81.9q-.19,3.29-.26,5.65-.15,4.62-.15,6.36,0,.36,0,1.31l-1.73,0H78q.08-.88.21-4.18t.13-4.22q0-.4,0-1.11l-1.25,4L75.3,29.15l-1.67,0H71.85l-1.13-5.37-.66-2.86q0-.17-.08-.41t-.15-.86l-.25,2.7-.34,5.54,0,1.25-1.65,0Z"/><path class="cls-1" d="M82.77,29.18q.25-2.52.36-4.21t.24-4.51q.12-2.81.13-3.73v-.86l5.34,0h5.09l0,.32q0,.12-.05.85l-.06,1.06c0,.23,0,.46,0,.69q-1.8-.09-3-.09H88.92l-1.47,0L87.32,21q1.1,0,2.57,0L92.68,21q-.1,1.25-.19,3l-2.49,0q-1.29,0-2.89.05L87,26.37h1.07l2,0,1.93,0,1.44-.07q-.12,1.44-.2,3l-5,0H82.77Z"/></g></g></svg>